<svg id="be83ef5c-d575-4e6f-8400-b2a2f585120e" data-name="Layer 1" xmlns="http://www.w3.org/2000/svg" viewBox="0 0 2190 480"><defs><style>.b92e6394-208c-44e0-9312-605ab8fd1441{fill:#a31c37;}.a28556be-3f0c-4dd4-8a8c-14f531db33ed{fill:#f15a24;}.a52701da-3a4e-4941-8ed9-337e3d1c2664{fill:#fbb03b;}.b19021d9-34e1-4348-96e2-007f443ef685{fill:#333;}</style></defs><rect class="b92e6394-208c-44e0-9312-605ab8fd1441" x="1725" y="15" width="450" height="450" rx="20.61702" transform="translate(3900 480) rotate(-180)"/><rect class="a28556be-3f0c-4dd4-8a8c-14f531db33ed" x="1680" y="82.5" width="315" height="315" rx="14.43191" transform="translate(3675 480) rotate(-180)"/><rect class="a52701da-3a4e-4941-8ed9-337e3d1c2664" x="1635" y="150" width="180" height="180" rx="8.24681" transform="translate(3450 480) rotate(-180)"/><path class="b19021d9-34e1-4348-96e2-007f443ef685" d="M353.20637,207.05686V455a10,10,0,0,1-10,10H301.29768a10,10,0,0,1-10-10V207.05686a12.65438,12.65438,0,0,0-12.61729-12.61729H89.526a12.65438,12.65438,0,0,0-12.61729,12.61729V455a10,10,0,0,1-10,10H25a10,10,0,0,1-10-10V142.53088a10,10,0,0,1,10-10H278.68039A74.526,74.526,0,0,1,353.20637,207.05686Z"/><path class="b19021d9-34e1-4348-96e2-007f443ef685" d="M670.16625,132.53088a74.36951,74.36951,0,0,1,74.51431,74.526V390.48568A74.367,74.367,0,0,1,670.16625,465H481.00017a74.367,74.367,0,0,1-74.51431-74.51432V207.05686a74.36951,74.36951,0,0,1,74.51431-74.526ZM481.00017,194.43957a12.722,12.722,0,0,0-12.60563,12.61729V390.48568a12.71194,12.71194,0,0,0,12.60563,12.60563H670.16625a12.71194,12.71194,0,0,0,12.60563-12.60563V207.05686a12.722,12.722,0,0,0-12.60563-12.61729Z"/><path class="b19021d9-34e1-4348-96e2-007f443ef685" d="M1125.25165,25V455a10,10,0,0,1-10,10H861.57125a74.51431,74.51431,0,0,1-74.51431-74.51432V207.05686a74.526,74.526,0,0,1,74.526-74.526h201.76V25a10,10,0,0,1,10-10h41.90869A10,10,0,0,1,1125.25165,25Zm-74.51432,378.09131a12.64268,12.64268,0,0,0,12.60563-12.60563V207.05686a12.65438,12.65438,0,0,0-12.61729-12.61729H861.57125A12.65438,12.65438,0,0,0,848.954,207.05686V390.48568a12.64269,12.64269,0,0,0,12.60563,12.60563Z"/><path class="b19021d9-34e1-4348-96e2-007f443ef685" d="M1515,207.0452V319.71978a10,10,0,0,1-10,10H1238.714v60.7659a12.64268,12.64268,0,0,0,12.60563,12.60563H1505a10,10,0,0,1,10,10V455a10,10,0,0,1-10,10H1251.31961a74.51432,74.51432,0,0,1-74.51432-74.51432V207.05686a74.526,74.526,0,0,1,74.526-74.526h189.15441A74.51432,74.51432,0,0,1,1515,207.0452Zm-61.90869,60.7659V207.05686a12.65438,12.65438,0,0,0-12.61729-12.61729H1251.31961A12.64268,12.64268,0,0,0,1238.714,207.0452v60.7659Z"/><path class="b19021d9-34e1-4348-96e2-007f443ef685" d="M86.98237,44.16761a12.40779,12.40779,0,0,1-1.04261,5.31052A14.67926,14.67926,0,0,1,90,59.37443V75.52215A14.53652,14.53652,0,0,1,75.4162,90H15V15H72.50028A14.5174,14.5174,0,0,1,86.98237,29.47785ZM29.47785,28.74887a.71327.71327,0,0,0-.729.729V44.16761a.71327.71327,0,0,0,.729.729H72.50028a.69821.69821,0,0,0,.62726-.729V29.47785a.69821.69821,0,0,0-.62726-.729ZM76.14517,59.37443c0-.41534-.30939-.623-.729-.623H29.47785c-.41535,0-.729.20768-.729.623V75.52215a.71327.71327,0,0,0,.729.729H75.4162a.71076.71076,0,0,0,.729-.729Z"/><path class="b19021d9-34e1-4348-96e2-007f443ef685" d="M111.86935,15h13.74887V90H111.86935Z"/><path class="b19021d9-34e1-4348-96e2-007f443ef685" d="M216.34211,15V28.74887H185.81826V90H171.96768V28.74887H141.34211V15Z"/><path class="b19021d9-34e1-4348-96e2-007f443ef685" d="M249.04442,28.74887a.71076.71076,0,0,0-.729.729v46.0443a.71076.71076,0,0,0,.729.729h60.31024V90H249.04442a14.44959,14.44959,0,0,1-14.48209-14.47785V29.47785A14.44959,14.44959,0,0,1,249.04442,15h60.31024V28.74887Z"/><path class="b19021d9-34e1-4348-96e2-007f443ef685" d="M390.907,15a14.51378,14.51378,0,0,1,14.47785,14.47785v46.0443A14.51378,14.51378,0,0,1,390.907,90H344.86692a14.44959,14.44959,0,0,1-14.48209-14.47785V29.47785A14.44959,14.44959,0,0,1,344.86692,15Zm0,61.25113a.69822.69822,0,0,0,.62727-.729V29.47785a.69822.69822,0,0,0-.62727-.729H344.86692a.71076.71076,0,0,0-.729.729v46.0443a.71076.71076,0,0,0,.729.729Z"/><path class="b19021d9-34e1-4348-96e2-007f443ef685" d="M427.36014,15H441.109V90H427.36014Z"/><path class="b19021d9-34e1-4348-96e2-007f443ef685" d="M521.73316,15H535.588V90H520.5846L474.33686,35.00028V90H460.58375V15h15.00339l46.146,54.99972Z"/><path class="b19021d9-34e1-4348-96e2-007f443ef685" d="M572.13862,28.74887a.71076.71076,0,0,0-.729.729v46.0443a.71076.71076,0,0,0,.729.729h60.31024V90H572.13862a14.44959,14.44959,0,0,1-14.48209-14.47785V29.47785A14.44959,14.44959,0,0,1,572.13862,15h60.31024V28.74887Z"/><path class="b19021d9-34e1-4348-96e2-007f443ef685" d="M714.31906,15a14.53923,14.53923,0,0,1,14.5838,14.47785V90H715.048V64.79091h-47.3963V90H653.90286V29.47785A14.446,14.446,0,0,1,668.38071,15Zm.729,36.042V29.47785a.71326.71326,0,0,0-.729-.729H668.38071a.71327.71327,0,0,0-.729.729V51.042Z"/><path class="b19021d9-34e1-4348-96e2-007f443ef685" d="M825.66625,35.208H811.81143V29.47785a.69821.69821,0,0,0-.62726-.729H765.1441a.71327.71327,0,0,0-.729.729V44.89659a.71327.71327,0,0,0,.729.729h46.04007a14.51739,14.51739,0,0,1,14.48208,14.47784V75.52215A14.5174,14.5174,0,0,1,811.18417,90H765.1441A14.44959,14.44959,0,0,1,750.662,75.52215V69.792h13.75311v5.73011a.71327.71327,0,0,0,.729.729h46.04007a.69821.69821,0,0,0,.62726-.729V60.10341a.69822.69822,0,0,0-.62726-.729H765.1441A14.44958,14.44958,0,0,1,750.662,44.89659V29.47785A14.44959,14.44959,0,0,1,765.1441,15h46.04007a14.5174,14.5174,0,0,1,14.48208,14.47785Z"/><path class="b19021d9-34e1-4348-96e2-007f443ef685" d="M923.98932,15V90H910.24045V59.37443H861.07256V90H847.32369V15h13.74887V45.62557h49.16789V15Z"/></svg>