<?xml version="1.0" encoding="UTF-8" standalone="no"?>
<svg
   xmlns:dc="http://purl.org/dc/elements/1.1/"
   xmlns:cc="http://creativecommons.org/ns#"
   xmlns:rdf="http://www.w3.org/1999/02/22-rdf-syntax-ns#"
   xmlns:svg="http://www.w3.org/2000/svg"
   xmlns="http://www.w3.org/2000/svg"
   xmlns:sodipodi="http://sodipodi.sourceforge.net/DTD/sodipodi-0.dtd"
   xmlns:inkscape="http://www.inkscape.org/namespaces/inkscape"
   inkscape:export-ydpi="96"
   inkscape:export-xdpi="96"
   inkscape:export-filename="electron-cash-full-white.png"
   inkscape:version="1.0 (4035a4fb49, 2020-05-01)"
   sodipodi:docname="electron-cash-full-white.svg"
   id="svg45"
   version="1.1"
   viewBox="0 0 805 325"
   height="433.33334"
   width="1073.3334">
  <metadata
     id="metadata51">
    <rdf:RDF>
      <cc:Work
         rdf:about="">
        <dc:format>image/svg+xml</dc:format>
        <dc:type
           rdf:resource="http://purl.org/dc/dcmitype/StillImage" />
        <dc:title />
      </cc:Work>
    </rdf:RDF>
  </metadata>
  <defs
     id="defs49" />
  <sodipodi:namedview
     inkscape:current-layer="svg45"
     inkscape:window-maximized="1"
     inkscape:window-y="-9"
     inkscape:window-x="-9"
     inkscape:cy="260.34645"
     inkscape:cx="630.90873"
     inkscape:zoom="0.66801242"
     inkscape:pagecheckerboard="true"
     inkscape:showpageshadow="false"
     borderlayer="true"
     showgrid="false"
     id="namedview47"
     inkscape:window-height="1007"
     inkscape:window-width="1920"
     inkscape:pageshadow="2"
     inkscape:pageopacity="0"
     guidetolerance="10"
     gridtolerance="10"
     objecttolerance="10"
     borderopacity="1"
     bordercolor="#666666"
     pagecolor="#ffffff"
     inkscape:document-rotation="0"
     inkscape:snap-intersection-paths="true"
     inkscape:snap-smooth-nodes="true"
     inkscape:object-paths="true"
     units="px" />
  <path
     fill="#0056c0"
     opacity="1"
     d="m 12.28,10.03 c 27.58,0 55.16,0.02 82.74,-0.01 2.79,-0.41 4.83,1.77 6.98,3.14 0,7.6 0,15.21 0.01,22.82 -1.93,1.16 -3.53,3.39 -5.94,3.35 -27.4,0 -54.8,0 -82.2,0.02 -2.45,0.18 -4.17,-1.94 -6.04,-3.2 0.09,-7.55 0,-15.1 0.05,-22.65 1.48,-1.14 2.94,-2.3 4.4,-3.47"
     id="path2"
     style="fill:#ffffff;fill-opacity:1"
     sodipodi:nodetypes="ccccccccc" />
  <path
     fill="#0056c0"
     opacity="1"
     d="m 180.12,10.04 c 27.66,-0.03 55.31,0.01 82.97,-0.01 2.69,-0.32 4.61,1.88 6.7,3.19 -0.07,7.56 -0.05,15.13 -0.02,22.69 -1.52,1.14 -3.04,2.29 -4.55,3.44 -27.75,-0.04 -55.49,-0.01 -83.24,0 -2.57,0.29 -4.39,-1.84 -6.38,-3.08 0.04,-7.62 0.01,-15.24 0.01,-22.86 1.52,-1.1 3.02,-2.23 4.51,-3.37"
     id="path4"
     style="fill:#ffffff;fill-opacity:1"
     sodipodi:nodetypes="ccccccccc" />
  <path
     fill="#0056c0"
     opacity="1"
     d="m 362.34,12.46 c 0.81,-0.76 1.62,-1.53 2.44,-2.29 11.6,-0.02 23.19,0.02 34.79,-0.02 1.04,1.14 2.09,2.26 3.16,3.38 0.05,7.03 -0.03,14.06 0.06,21.1 -1.29,1.07 -2.56,2.14 -3.84,3.21 -11.2,-0.07 -22.39,-0.12 -33.59,-0.13 l -3.03,-2.04 c 0.06,-7.74 0.04,-15.47 0.01,-23.21"
     id="path6"
     style="fill:#ffffff;fill-opacity:1"
     sodipodi:nodetypes="ccccccccc" />
  <path
     fill="#0056c0"
     opacity="1"
     d="m 419.54,16.61 c 4.4,-3.45 9.65,-6.44 15.41,-6.4 35.35,-0.25 70.71,-0.04 106.06,-0.01 4.99,0.04 10.02,-0.23 14.98,0.55 13.03,2.6 24.67,13.52 26.01,27.09 -40.34,0.11 -80.7,-0.42 -121.02,0.32 -7.3,-0.04 -14.6,0.11 -21.89,-0.2 -0.66,0.98 -1.95,1.78 -1.78,3.12 -0.08,22.18 -0.11,44.36 -0.13,66.55 -1.13,1.09 -2.25,2.19 -3.36,3.29 -7.55,0.02 -15.1,0.09 -22.64,0.08 -1.11,-1.03 -2.2,-2.06 -3.3,-3.08 0.05,-23.32 0.05,-46.65 0.14,-69.97 -0.17,-8.57 5.21,-16.05 11.52,-21.34"
     id="path8"
     style="fill:#ffffff;fill-opacity:1"
     sodipodi:nodetypes="cccccccccccccc" />
  <path
     id="path10"
     style="fill:#ffffff;fill-opacity:1;stroke-width:1.33333"
     d="m 848.61133,12.605469 c -4.92523,-0.01897 -9.85274,0.493359 -14.67774,1.568359 -20.29333,4.706667 -38.63927,18.492187 -47.58593,37.492188 -9.45334,19.106667 -8.80177,42.893384 1.85156,61.386714 7.09333,12.96 18.6281,23.38732 32.13476,29.33399 C 848.33399,155.12005 884.86706,146.93333 903.40039,122 912.74706,110.13333 918.48,95.187605 918,79.960938 c 0.2,-14.466668 -5.33393,-28.546667 -13.94727,-40 -12.79416,-17.235834 -34.09876,-27.273246 -55.4414,-27.355469 z m -0.53125,39.443359 c 14.33706,-0.237891 28.51127,10.648724 30.59961,25.150391 2.32,12.413333 -4.90709,25.241641 -16.09375,30.681641 -6.08,3.52 -13.29172,2.98534 -20.01172,2.63867 -12.70667,-2.21333 -23.26701,-13.65328 -24.01367,-26.61328 -1.37334,-14.36 9.56039,-27.986068 23.40039,-31.052734 2.02,-0.51 4.07099,-0.770703 6.11914,-0.804688 z"
     transform="scale(0.74999998)"
     sodipodi:nodetypes="scccccccsscccccs" />
  <path
     fill="#0056c0"
     opacity="1"
     d="m 772.52,10.23 c 7.14,-0.11 14.28,0.07 21.42,0.05 1.16,1.27 2.31,2.54 3.48,3.81 -0.03,31.5 0.03,63.01 -0.03,94.51 -0.85,0.79 -1.69,1.59 -2.52,2.39 -4.19,0.01 -8.37,0.02 -12.55,0 -12.26,-13.97 -24.53,-27.93 -36.9,-41.8 0.05,-5.46 0.07,-10.93 0.15,-16.4 7.79,-0.34 15.58,-0.2 23.38,-0.3 0.12,-12.19 -0.04,-24.38 0.12,-36.57 -0.09,-2.41 2.24,-3.86 3.45,-5.69"
     id="path12"
     style="fill:#ffffff;fill-opacity:1"
     sodipodi:nodetypes="ccccccccccc" />
  <path
     fill="#0056c0"
     opacity="1"
     d="m 106.17,13.43 c 1.05,-0.93 2.1,-1.87 3.14,-2.81 h 22.68 c 1.1,0.99 2.21,1.97 3.31,2.96 -0.02,22.64 0.22,45.28 0.17,67.92 1.02,0.8 2.07,1.82 3.49,1.65 9.94,-0.03 19.87,-0.05 29.81,-0.08 0.92,0.86 1.84,1.73 2.76,2.59 -0.05,7.69 -0.02,15.38 -0.03,23.08 -0.87,0.74 -1.73,1.49 -2.58,2.24 -11.97,-0.01 -23.94,0 -35.9,-0.04 -6.11,0.22 -11.49,-3.27 -16.02,-6.98 C 111.09,99 106.39,91.92 106.27,83.99 106.14,60.47 106.25,36.95 106.17,13.43"
     id="path14"
     style="fill:#ffffff;fill-opacity:1"
     sodipodi:nodetypes="cccccccccccccc" />
  <path
     fill="#0056c0"
     opacity="1"
     d="m 303.19,14.36 c 5.85,-2.86 12.43,-3.68 18.88,-3.73 12.97,-0.07 25.95,-0.06 38.93,-0.06 v 27.98 c -13.17,-0.01 -26.35,-0.21 -39.52,0.01 -12.9,0.71 -22.28,14.95 -19.23,27.18 2.81,9.07 10.7,17.62 20.7,17.84 12.68,-0.03 25.37,-0.08 38.05,-0.05 V 111 c -14.37,-0.09 -28.74,0.21 -43.1,-0.21 -19.4,-1.63 -35.42,-16.96 -41.79,-34.78 -5.27,-15.64 -1.66,-33.52 8.41,-46.45 5.17,-6.21 11.43,-11.57 18.67,-15.2"
     id="path16"
     style="fill:#ffffff;fill-opacity:1"
     sodipodi:nodetypes="ccccccccccccc" />
  <path
     fill="#0056c0"
     opacity="1"
     d="m 691.41,13.47 c 0.88,-0.84 1.77,-1.69 2.67,-2.54 4.19,-0.02 8.38,-0.01 12.58,-0.01 12.02,13.74 24.34,27.23 36.37,40.97 -0.04,5.82 -0.12,11.63 -0.24,17.45 -7.56,0.16 -15.11,0.16 -22.65,0.22 -0.1,12.19 -0.05,24.37 -0.16,36.56 0.1,2.1 -1.92,3.36 -3.02,4.9 -7.6,-0.04 -15.2,-0.01 -22.8,-0.02 -0.91,-0.92 -1.82,-1.83 -2.72,-2.75 -0.05,-31.59 0.01,-63.18 -0.03,-94.78"
     id="path18"
     style="fill:#ffffff;fill-opacity:1"
     sodipodi:nodetypes="ccccccccccc" />
  <path
     fill="#0056c0"
     opacity="1"
     d="m 511.37,46.38 c 23.34,0.17 46.69,-0.12 70.03,0.34 -1.15,8.34 -5.15,16.68 -12.21,21.56 -5.71,3.95 -12.62,5.71 -19.46,6.35 10.33,10.21 20.48,20.61 30.88,30.76 0.01,1.86 0.03,3.73 0.06,5.6 -10.59,0.03 -21.18,0 -31.77,0.01 C 535.14,97.11 521.65,82.95 507.96,69 V 50.03 c 1.14,-1.21 2.27,-2.43 3.41,-3.65"
     id="path22"
     style="fill:#ffffff;fill-opacity:1"
     sodipodi:nodetypes="cccccccccc" />
  <path
     fill="#0056c0"
     opacity="1"
     d="m 7.86,50.19 c 1.5,-1.18 3,-2.35 4.48,-3.55 26.63,0.09 53.25,-0.11 79.87,0.15 -0.97,9.86 -6.6,19.36 -15.56,23.92 -10.88,5.74 -23.58,3.68 -35.38,4.14 v 9.25 c 18.75,0.04 37.5,0.02 56.25,0.15 1.45,1.62 2.95,3.21 4.46,4.79 -0.06,6.06 0.15,12.13 -0.05,18.18 -1.28,1.61 -2.99,2.81 -4.52,4.16 -25.81,-0.08 -51.63,-0.02 -77.44,-0.03 -2.57,-0.08 -5.2,0.25 -7.73,-0.21 -1.56,-0.94 -2.95,-2.11 -4.38,-3.22 0.01,-19.24 0.01,-38.49 0,-57.73"
     id="path24"
     style="fill:#ffffff;fill-opacity:1"
     sodipodi:nodetypes="cccccccccccccc" />
  <path
     fill="#0056c0"
     opacity="1"
     d="m 175.59,50.22 c 1.52,-1.21 3.04,-2.41 4.58,-3.59 26.6,0.1 53.21,-0.09 79.81,0.14 -1,9.49 -6.13,18.78 -14.66,23.43 -11.01,6.38 -24.2,4.15 -36.32,4.67 v 9.21 c 18.65,0.11 37.31,-0.02 55.95,0.2 1.87,1.25 3.22,3.12 4.79,4.72 -0.01,6.18 0,12.36 0.01,18.55 -1.53,1.25 -3.04,2.52 -4.55,3.8 -28.35,0 -56.71,-0.04 -85.06,0.02 -1.53,-1.15 -3.04,-2.33 -4.54,-3.51 0.02,-19.22 0.03,-38.43 -0.01,-57.64 m 55.4,19.79 c -153.993333,-46.673333 -76.99667,-23.336667 0,0 z"
     id="path26"
     style="fill:#ffffff;fill-opacity:1"
     sodipodi:nodetypes="ccccccccccccccc" />
  <path
     fill="#0056c0"
     opacity="1"
     d="m 473.75,50.18 c 0.97,-1.17 1.94,-2.35 2.92,-3.53 7.57,0.02 15.13,0.03 22.7,-0.01 1.15,1.26 2.31,2.51 3.48,3.76 -0.04,18.93 -0.04,37.86 -0.02,56.79 -1.03,1.31 -2.05,2.63 -3.07,3.95 -7.59,-0.14 -15.18,-0.13 -22.76,-0.23 -1.09,-1.01 -2.17,-2.03 -3.25,-3.04 0.04,-19.23 0,-38.46 0,-57.69"
     id="path28"
     style="fill:#ffffff;fill-opacity:1"
     sodipodi:nodetypes="ccccccccc" />
  <path
     fill="#0056c0"
     opacity="1"
     d="m 309.33,140.15 c 4.93,0.04 9.87,0.02 14.8,0.01 1.67,1.83 3.99,3.3 4.74,5.79 12.48,37.22 25.02,74.42 37.51,111.64 -1.28,1.38 -2.55,2.78 -3.8,4.2 -12.6,-0.05 -25.2,0.03 -37.8,0.01 -2.28,-7.15 -4.48,-14.33 -6.86,-21.45 l -4.71,0.03 c -7.58,21.18 -15.12,42.38 -22.62,63.59 -13.29,0.12 -26.58,0.01 -39.87,0.06 -1.53,-1.55 -3.06,-3.1 -4.6,-4.63 19.24,-51.14 38.54,-102.25 57.75,-153.4 0.88,-2.65 3.56,-4 5.46,-5.85"
     id="path30"
     style="fill:#ffffff;fill-opacity:1"
     sodipodi:nodetypes="ccccccccccccc" />
  <path
     fill="#0056c0"
     opacity="1"
     d="m 148.93,146.95 c 8.76,-4.07 18.47,-5.53 28.06,-5.57 21.45,-0.08 42.9,-0.12 64.34,-0.12 -0.12,15.06 0.01,30.12 -0.06,45.18 -20.1,-0.08 -40.2,-0.05 -60.3,-0.07 -22.5,-1.12 -40.52,24.04 -34.36,45.21 3.48,11.37 12.19,20.73 22.77,25.97 3.28,1.58 6.96,2.2 10.59,2.14 20.56,-0.1 41.11,-0.01 61.67,-0.09 -0.02,14.81 -0.01,29.61 -0.01,44.42 h -55.58 c -8.62,0.03 -17.41,0.24 -25.76,-2.25 -20.72,-5.71 -38.3,-20.48 -49.04,-38.92 -8.87,-14.58 -12.45,-32.06 -10.74,-48.99 3.38,-28.56 22.13,-55 48.42,-66.91"
     id="path32"
     style="fill:#ffffff;fill-opacity:1"
     sodipodi:nodetypes="ccccccccccccccc" />
  <path
     id="path34"
     style="fill:#ffffff;fill-opacity:1;stroke-width:1.33333"
     d="m 746.96094,188 c -41.01334,0.04 -82.04169,0.0925 -123.06836,0.19922 -54.50667,0.04 -103.51943,49.70758 -102.7461,104.26758 v 4.30078 4.29883 h 165.58594 c -0.0718,13.54133 -7.75013,25.96382 -18,34.34765 -7.44,5.97334 -16.42521,10.67977 -26.17187,10.75977 -40.48,0.08 -80.96107,0.012 -121.42774,-0.0547 -0.13333,19.73333 -0.0261,39.48151 -0.0527,59.21484 37.85333,0 75.70721,0.013 113.56054,-0.0137 11.45334,0.12 23.10555,-0.081 34.18555,-3.34765 43.97334,-12.18667 78.68042,-54.69292 78.09375,-100.90625 v -4.29883 -4.30078 H 581.42578 c 0.32,-20.64 16.93341,-38.307 36.08008,-44.01368 14.8,-1.44 29.86763,0.59967 44.6543,-1.01367 28.26666,-0.37333 56.54583,0.0139 84.8125,-0.0527 -0.0133,-19.8 0.002,-39.58672 -0.0117,-59.38672 z"
     transform="scale(0.74999998)" />
  <path
     fill="#0056c0"
     opacity="1"
     d="m 592.06,141.51 c 6.57,-1.06 13.26,-0.56 19.89,-0.68 -0.02,13.01 -0.11,26.02 -0.09,39.03 -2.26,1.98 -4.11,4.62 -6.75,6.05 -12.69,0.23 -25.38,-0.01 -38.07,0.01 0.08,-11.42 1.12,-23.64 7.67,-33.37 4.18,-5.58 10.29,-10.1 17.35,-11.04"
     id="path36"
     style="fill:#ffffff;fill-opacity:1"
     sodipodi:nodetypes="ccccccc" />
  <path
     fill="#0056c0"
     opacity="1"
     d="m 662.87,140.62 c 14.98,-0.04 29.96,0.05 44.94,-0.05 -0.03,54.47 -0.01,108.95 -0.01,163.43 h -44.96 c 0,-19.74 -0.01,-39.47 0,-59.21 -16.94,0.04 -33.88,0.01 -50.82,0.02 -0.01,19.73 0,39.46 0,59.19 H 567 V 200.02 c 31.95,0.01 63.89,0 95.83,0.01 0.03,-19.81 -0.05,-39.61 0.04,-59.41"
     id="path38"
     style="fill:#ffffff;fill-opacity:1"
     sodipodi:nodetypes="ccccccccccc" />
  <path
     fill="#0056c0"
     opacity="1"
     d="m 306.1,264.22 c 1.29,0.18 2.59,0.29 3.91,0.33 17,-0.39 34.02,-0.1 51.03,-0.22 3.06,-0.16 5.9,1.14 8.77,2.01 5.39,12.53 10.69,25.11 15.99,37.68 -10.93,-0.02 -21.86,0.03 -32.79,-0.02 -12.21,-0.4 -24.98,-3.33 -34.54,-11.34 -8.35,-6.86 -12.01,-17.92 -12.37,-28.44"
     id="path42"
     style="fill:#ffffff;fill-opacity:1"
     sodipodi:nodetypes="cccccccc" />
</svg>
