<?xml version="1.0" encoding="UTF-8" standalone="no"?>
<svg
   xmlns:dc="http://purl.org/dc/elements/1.1/"
   xmlns:cc="http://creativecommons.org/ns#"
   xmlns:rdf="http://www.w3.org/1999/02/22-rdf-syntax-ns#"
   xmlns:svg="http://www.w3.org/2000/svg"
   xmlns="http://www.w3.org/2000/svg"
   xmlns:sodipodi="http://sodipodi.sourceforge.net/DTD/sodipodi-0.dtd"
   xmlns:inkscape="http://www.inkscape.org/namespaces/inkscape"
   inkscape:version="1.0 (4035a4fb49, 2020-05-01)"
   height="1024"
   width="1024"
   sodipodi:docname="favicon.svg"
   xml:space="preserve"
   viewBox="0 0 1024 1024"
   version="1.1"
   enable-background="new 0 0 4023.3 505.3"
   y="0"
   x="0"
   id="Layer_1"
   inkscape:export-filename="favicon.png"
   inkscape:export-xdpi="7.03125"
   inkscape:export-ydpi="7.03125"><metadata
     id="metadata40"><rdf:RDF><cc:Work
         rdf:about=""><dc:format>image/svg+xml</dc:format><dc:type
           rdf:resource="http://purl.org/dc/dcmitype/StillImage" /><dc:title>6-bitcoin-cash-logo-horizontal</dc:title></cc:Work></rdf:RDF></metadata><defs
     id="defs38" /><sodipodi:namedview
     inkscape:snap-page="true"
     inkscape:current-layer="Layer_1"
     inkscape:window-maximized="1"
     inkscape:window-y="-9"
     inkscape:window-x="-9"
     inkscape:cy="611.35459"
     inkscape:cx="-1.0143811"
     inkscape:zoom="0.27966626"
     inkscape:pagecheckerboard="true"
     borderlayer="true"
     inkscape:showpageshadow="false"
     showgrid="false"
     id="namedview36"
     inkscape:window-height="1007"
     inkscape:window-width="1920"
     inkscape:pageshadow="2"
     inkscape:pageopacity="0"
     guidetolerance="10"
     gridtolerance="10"
     objecttolerance="10"
     borderopacity="1"
     bordercolor="#666666"
     pagecolor="#ffffff"
     inkscape:document-rotation="0"
     inkscape:snap-intersection-paths="true"
     inkscape:snap-smooth-nodes="true" /><style
     id="style2"
     type="text/css">.st0{fill:#4d4d4d}.st1{fill:#0ac18e}.st2{fill:#fff}</style><title
     id="title4">6-bitcoin-cash-logo-horizontal</title><style
     type="text/css"
     id="style865">.st0{fill:#4d4d4d}.st1{fill:#0ac18e}.st2{fill:#fff}</style><rect
     y="0"
     x="0"
     height="1024"
     width="1024"
     id="rect1062"
     style="fill:#0ac18e;fill-opacity:1;stroke:none;stroke-width:18.8976;stroke-linecap:square;stroke-linejoin:round;paint-order:markers stroke fill" /><g
     transform="matrix(1.0187325,0,0,1.0187325,-9.5910361,-9.5910435)"
     style="fill:#ffffff;fill-opacity:1"
     id="g1072"><g
       id="g1066"
       transform="matrix(1.2278029,0,0,1.2278029,2117.6585,-215.03866)"
       style="fill:#ffffff;fill-opacity:1"><path
         style="fill:#ffffff;fill-opacity:1;stroke-width:3.07572"
         id="path952"
         d="m -1593.4042,438.79468 c 84.8285,0 169.657,0.062 254.4854,-0.031 8.5813,-1.2611 14.8558,5.444 21.4686,9.6577 0,23.3755 0,46.7818 0.031,70.188 -5.9362,3.5679 -10.8573,10.4267 -18.2698,10.3037 -84.2749,0 -168.5497,0 -252.8245,0.062 -7.5355,0.5537 -12.8258,-5.9669 -18.5774,-9.8423 0.2768,-23.2217 0,-46.4434 0.1538,-69.6651 4.5521,-3.5064 9.0426,-7.0742 13.5332,-10.6728"
         opacity="1"
         fill="#0056c0"
         sodipodi:nodetypes="ccccccccc" /><path
         style="fill:#ffffff;fill-opacity:1;stroke-width:3.07572"
         id="path974"
         d="m -1606.9989,562.31578 c 4.6136,-3.6294 9.2272,-7.228 13.7793,-10.9189 81.9065,0.2769 163.7823,-0.3383 245.658,0.4614 -2.9834,30.3266 -20.2997,59.546 -47.8582,73.5713 -33.4639,17.6547 -72.5256,11.3187 -108.8191,12.7335 v 28.4505 c 57.6698,0.123 115.3396,0.061 173.0094,0.4613 4.4598,4.9827 9.0734,9.8731 13.7177,14.7327 -0.1845,18.6389 0.4614,37.3086 -0.1537,55.9167 -3.937,4.9519 -9.1965,8.6428 -13.9023,12.795 -79.3844,-0.2461 -158.7996,-0.061 -238.184,-0.092 -7.9047,-0.246 -15.9938,0.769 -23.7754,-0.6459 -4.7981,-2.8912 -9.0734,-6.4898 -13.4717,-9.9038 0.031,-59.1769 0.031,-118.3846 0,-177.5615"
         opacity="1"
         fill="#0056c0"
         sodipodi:nodetypes="cccccccccccccc" /></g><path
       fill="#0056c0"
       opacity="1"
       d="m 661.39046,330.89676 c 20.61187,-9.57651 43.45895,-13.01185 66.02375,-13.10594 50.47068,-0.18827 100.94149,-0.28237 151.38872,-0.28237 -0.2824,35.43542 0.0233,70.87083 -0.1412,106.30626 -47.29423,-0.1882 -94.58859,-0.11763 -141.88282,-0.16471 -52.94139,-2.6353 -95.34147,56.5649 -80.84726,106.37687 8.18822,26.75297 28.68246,48.77659 53.57665,61.10605 7.71761,3.7177 16.37644,5.17651 24.91765,5.03536 48.37666,-0.23532 96.72975,-0.0237 145.10641,-0.21184 -0.0466,34.84721 -0.0233,69.67086 -0.0233,104.51803 H 748.73221 c -20.28245,0.07 -40.96491,0.56479 -60.61197,-5.29416 -48.7531,-13.43536 -90.11803,-48.18835 -115.38867,-91.57678 -20.87068,-34.30596 -29.29427,-75.43556 -25.27076,-115.27098 7.95309,-67.20019 52.07088,-129.41214 113.92992,-157.43579"
       id="path982"
       style="fill:#ffffff;fill-opacity:1;stroke-width:2.35295"
       sodipodi:nodetypes="ccccccccccccccc" /></g><g
     aria-label="("
     transform="rotate(90,0.6245975,-0.6246025)"
     id="text842"
     style="font-style:normal;font-weight:normal;font-size:798.799px;line-height:1.25;font-family:sans-serif;letter-spacing:0px;word-spacing:0px;fill:#ffffff;fill-opacity:1;stroke:none;stroke-width:19.9699"><path
       d="m 266.48654,-910.23557 q -52.26517,100.43222 -77.61768,198.68114 -25.35251,98.2489 -25.35251,199.11778 0,100.86887 25.35251,199.99109 25.74255,98.68557 77.61768,198.68112 h -62.40618 q -58.50578,-102.61553 -87.75868,-201.73775 -28.862852,-99.12223 -28.862852,-196.93447 0,-97.37559 28.862852,-196.06115 28.86286,-98.68557 87.75868,-201.73776 z"
       style="fill:#ffffff;stroke-width:21.1298"
       id="path847" /></g><g
     style="font-style:normal;font-weight:normal;font-size:798.799px;line-height:1.25;font-family:sans-serif;letter-spacing:0px;word-spacing:0px;fill:#ffffff;fill-opacity:1;stroke:none;stroke-width:19.9699"
     id="g852"
     transform="matrix(0,-1,-1,0,-5e-6,1025.2492)"
     aria-label="("><path
       id="path850"
       style="fill:#ffffff;stroke-width:21.1298"
       d="m 266.48654,-910.23557 q -52.26517,100.43222 -77.61768,198.68114 -25.35251,98.2489 -25.35251,199.11778 0,100.86887 25.35251,199.99109 25.74255,98.68557 77.61768,198.68112 h -62.40618 q -58.50578,-102.61553 -87.75868,-201.73775 -28.862852,-99.12223 -28.862852,-196.93447 0,-97.37559 28.862852,-196.06115 28.86286,-98.68557 87.75868,-201.73776 z" /></g></svg>
