<?xml version="1.0" encoding="UTF-8" standalone="no"?>
<svg
   xmlns:dc="http://purl.org/dc/elements/1.1/"
   xmlns:cc="http://creativecommons.org/ns#"
   xmlns:rdf="http://www.w3.org/1999/02/22-rdf-syntax-ns#"
   xmlns:svg="http://www.w3.org/2000/svg"
   xmlns="http://www.w3.org/2000/svg"
   xmlns:sodipodi="http://sodipodi.sourceforge.net/DTD/sodipodi-0.dtd"
   xmlns:inkscape="http://www.inkscape.org/namespaces/inkscape"
   inkscape:version="1.0 (4035a4fb49, 2020-05-01)"
   sodipodi:docname="playstore.svg"
   id="svg69"
   version="1.1"
   viewBox="0 0 88.438497 28.689"
   height="38.251999"
   width="117.918">
  <metadata
     id="metadata75">
    <rdf:RDF>
      <cc:Work
         rdf:about="">
        <dc:format>image/svg+xml</dc:format>
        <dc:type
           rdf:resource="http://purl.org/dc/dcmitype/StillImage" />
        <dc:title />
      </cc:Work>
    </rdf:RDF>
  </metadata>
  <defs
     id="defs73" />
  <sodipodi:namedview
     inkscape:snap-page="true"
     inkscape:current-layer="svg69"
     inkscape:window-maximized="1"
     inkscape:window-y="-9"
     inkscape:window-x="-9"
     inkscape:cy="46.877986"
     inkscape:cx="94.365226"
     inkscape:zoom="5.0531119"
     units="px"
     showgrid="false"
     id="namedview71"
     inkscape:window-height="1007"
     inkscape:window-width="1920"
     inkscape:pageshadow="2"
     inkscape:pageopacity="0"
     guidetolerance="10"
     gridtolerance="10"
     objecttolerance="10"
     borderopacity="1"
     bordercolor="#666666"
     pagecolor="#ffffff"
     inkscape:document-rotation="0" />
  <g
     transform="translate(-18.367757,-2.3440305)"
     id="#a6a6a6ff" />
  <g
     transform="matrix(0.15919822,0,0,0.17924627,-3.5374763,-1.0712715)"
     id="#000000ff">
    <path
       id="path5"
       d="M 50,6 C 219,6 388.01,6.01 557.01,5.99 L 577.745,5.9765344 577.73,23.93 c 0.02,41.38 0.02,82.76 0,124.14 l 0.015,17.96007 L 552.01,166.01 C 385.67,165.99 219.34,166.01 53,166 L 22.220577,166.03007 22.25,143 c 0.02,-38 0.02,-76 0,-114 L 22.220577,5.9765344"
       opacity="1"
       fill="#000000"
       sodipodi:nodetypes="cccccccccccc" />
    <path
       id="path7"
       d="m 313.31,35.26 c 3.62,-1.26 7.9,0.17 10.16,3.25 3.58,4.78 1.88,12.89 -4.01,14.96 -5.03,2.34 -11.16,-1.44 -12.28,-6.64 -1.28,-4.65 1.56,-10 6.13,-11.57 z"
       opacity="1"
       fill="#000000" />
    <path
       id="path9"
       d="m 432.22,83.03 c 6,0.56 13.95,-2.15 18.11,3.65 3.91,4.76 0.57,12.64 -5.35,13.65 -4.25,0.39 -8.52,0.12 -12.77,0.1 0.07,-5.8 0.05,-11.6 0.01,-17.4 z"
       opacity="1"
       fill="#000000" />
    <path
       id="path11"
       d="m 382.07,110.14 c 0.49,-4.5 3.44,-8.98 8.16,-9.75 3.06,-0.74 5.85,1.11 7.83,3.27 -5.3,2.23 -10.54,4.65 -15.99,6.48 z"
       opacity="1"
       fill="#000000" />
    <path
       id="path13"
       d="m 260.31,101.08 c 6.44,-2.79 13.77,3.17 13.32,9.92 0.44,6.8 -6.95,12.79 -13.42,9.92 -8.34,-3.16 -8.33,-16.79 0.1,-19.84 z"
       opacity="1"
       fill="#000000" />
    <path
       id="path15"
       d="m 298.42,101.4 c 5.73,-3.05 13.09,1.3 13.85,7.58 1.81,7.22 -5.8,15.14 -13.07,11.99 -8.22,-2.94 -8.68,-15.97 -0.78,-19.57 z"
       opacity="1"
       fill="#000000" />
    <path
       id="path17"
       d="m 337.35,101.3 c 6.46,-3.39 13.77,2.94 13.19,9.7 0.73,6.76 -6.83,13.13 -13.2,9.71 -7.78,-3.4 -7.6,-15.94 0.01,-19.41 z"
       opacity="1"
       fill="#000000" />
    <path
       id="path19"
       d="m 485.86,113.88 c 3.85,-2.96 9.17,-2.06 13.42,-0.55 -0.53,5.94 -7.44,10.24 -12.87,7.38 -2.75,-1.18 -2.89,-5.18 -0.55,-6.83 z"
       opacity="1"
       fill="#000000" />
  </g>
  <g
     transform="matrix(0.16103989,0,0,0.16103989,-4.5417418,0.52925211)"
     id="#ffffffff">
    <path
       id="path22"
       d="m 195.85,33.84 c 5.23,-4.3 13.55,-3.61 18.22,1.23 -0.81,0.91 -1.64,1.81 -2.48,2.68 -3.21,-2.15 -7.16,-4.13 -10.97,-2.12 -6.88,2.7 -7.71,13.36 -1.25,17.02 5.06,3.66 12.81,0.35 13.9,-5.75 -3.09,-0.05 -6.19,-0.05 -9.28,0.03 0.03,-1.28 0.06,-2.55 0.08,-3.83 4.28,0.06 8.55,-0.01 12.83,0.08 0.08,3.32 0.26,7 -2,9.72 -4.63,6.57 -15.4,6.75 -20.59,0.79 -5.01,-5.47 -4.5,-15.32 1.54,-19.85 z"
       opacity="1"
       fill="#ffffff" />
    <path
       id="path24"
       d="m 312.36,31.42 c 4.49,-0.97 9.74,-0.34 12.98,3.24 5.56,4.96 5.48,14.7 0,19.69 -5.33,5.54 -15.64,4.63 -19.95,-1.74 -5.24,-7.08 -1.92,-18.96 6.97,-21.19 m 0.95,3.84 c -4.57,1.57 -7.41,6.92 -6.13,11.57 1.12,5.2 7.25,8.98 12.28,6.64 5.89,-2.07 7.59,-10.18 4.01,-14.96 -2.26,-3.08 -6.54,-4.51 -10.16,-3.25 z"
       opacity="1"
       fill="#ffffff" />
    <path
       id="path26"
       d="m 220.12,31.57 c 5.16,-0.13 10.32,-0.07 15.47,-0.05 0.01,0.99 0.01,2.97 0.01,3.96 -3.86,0.03 -7.72,0.05 -11.57,-0.03 -0.09,2.37 -0.09,4.73 0,7.1 3.49,-0.07 6.97,-0.06 10.46,-0.05 0,0.94 -0.01,2.83 -0.01,3.77 -3.5,-0.03 -7,-0.02 -10.49,-0.03 -0.05,2.41 -0.06,4.82 -0.08,7.24 3.87,0.03 7.75,0.02 11.63,0.01 0.06,1.22 0.12,2.44 0.18,3.66 -5.2,0.18 -10.4,0.1 -15.59,0.07 0.01,-8.55 0.01,-17.1 -0.01,-25.65 z"
       opacity="1"
       fill="#ffffff" />
    <path
       id="path28"
       d="m 238.4,31.52 c 6.03,-0.04 12.06,-0.01 18.09,-0.03 0,1.01 -0.01,3.03 -0.02,4.04 -2.29,-0.02 -4.58,-0.03 -6.86,-0.09 -0.22,7.25 -0.09,14.5 -0.08,21.75 -1.4,0.02 -2.79,0.02 -4.18,0.02 -0.02,-7.25 0.11,-14.5 -0.07,-21.75 -2.29,0.04 -4.58,0.04 -6.86,0.04 -0.01,-1 -0.01,-2.99 -0.02,-3.98 z"
       opacity="1"
       fill="#ffffff" />
    <path
       id="path30"
       d="m 268.12,31.59 c 1.28,-0.04 2.56,-0.08 3.85,-0.11 -0.06,8.59 -0.05,17.18 -0.01,25.78 -1.28,-0.02 -2.56,-0.03 -3.84,-0.05 0.02,-8.54 0.03,-17.08 0,-25.62 z"
       opacity="1"
       fill="#ffffff" />
    <path
       id="path32"
       d="m 275.4,31.52 c 6.03,-0.04 12.06,-0.01 18.09,-0.03 0,1.01 -0.01,3.03 -0.02,4.04 -2.29,-0.02 -4.58,-0.03 -6.86,-0.09 -0.22,7.25 -0.08,14.5 -0.08,21.75 -1.4,0.02 -2.79,0.02 -4.18,0.02 -0.02,-7.25 0.11,-14.5 -0.07,-21.75 -2.29,0.04 -4.58,0.04 -6.86,0.04 -0.01,-1 -0.02,-2.99 -0.02,-3.98 z"
       opacity="1"
       fill="#ffffff" />
    <path
       id="path34"
       d="m 333.13,31.53 c 1.54,0.11 3.22,-0.38 4.67,0.3 3.92,5.75 7.25,11.89 11.24,17.6 0.2,-5.95 0.06,-11.9 0.07,-17.85 1.37,-0.04 2.75,-0.07 4.13,-0.09 0,8.61 0.05,17.23 -0.03,25.84 -1.35,-0.01 -2.7,-0.09 -4.03,-0.24 -4.37,-6.06 -7.75,-12.79 -12.14,-18.85 -0.23,6.34 -0.08,12.68 -0.08,19.02 -1.28,-0.02 -2.56,-0.03 -3.84,-0.05 0.03,-8.56 0.01,-17.12 0.01,-25.68 z"
       opacity="1"
       fill="#ffffff" />
    <path
       id="path36"
       d="m 206.71,75.72 c 9.84,-4.19 22.2,-2.33 29.8,5.4 -1.59,1.99 -3.48,3.71 -5.27,5.51 -4.43,-3.68 -10.2,-6.03 -16.02,-5.15 -9.96,1.02 -17.83,10.62 -17.23,20.55 0.19,9.97 8.86,19.01 18.95,19 8.66,0.81 17.86,-5.49 18.45,-14.54 -5.96,0.02 -11.92,0.03 -17.88,-0.01 -0.02,-2.65 -0.02,-5.31 0,-7.96 8.55,-0.02 17.1,-0.06 25.65,0.02 1.13,8.31 -0.67,17.65 -7.09,23.51 -7.16,6.99 -18.38,8.31 -27.62,5.31 -11.67,-3.84 -20.06,-16 -18.85,-28.33 0.76,-10.17 7.7,-19.48 17.11,-23.31 z"
       opacity="1"
       fill="#ffffff" />
    <path
       id="path38"
       d="m 464.05,75.45 c 2.71,0.06 5.41,0.06 8.12,0.02 0.16,17.43 0.07,34.87 0.05,52.3 -2.74,-0.02 -5.47,-0.02 -8.2,0.01 -0.02,-17.45 -0.07,-34.89 0.03,-52.33 z"
       opacity="1"
       fill="#ffffff" />
    <path
       id="path40"
       d="m 362.76,75.51 c 2.67,-0.03 5.35,-0.02 8.03,0.05 -0.08,17.4 -0.02,34.79 -0.03,52.19 -2.66,0 -5.33,0 -7.98,0.02 -0.06,-17.42 -0.02,-34.84 -0.02,-52.26 z"
       opacity="1"
       fill="#ffffff" />
    <path
       id="path42"
       d="m 424,75.52 c 6.32,-0.03 12.65,-0.03 18.98,-0.03 5.82,-0.13 11.6,2.91 14.74,7.82 2.49,3.9 2.94,8.9 1.65,13.29 -2.05,6.9 -9.23,11.57 -16.3,11.41 -3.62,0.02 -7.23,-0.04 -10.84,0.01 0.04,6.59 0.04,13.17 -0.01,19.75 -2.73,-0.02 -5.47,-0.02 -8.2,0.01 -0.05,-17.42 0,-34.84 -0.02,-52.26 m 8.22,7.51 c 0.04,5.8 0.06,11.6 -0.01,17.4 4.25,0.02 8.52,0.29 12.77,-0.1 5.92,-1.01 9.26,-8.89 5.35,-13.65 -4.16,-5.8 -12.11,-3.09 -18.11,-3.65 z"
       opacity="1"
       fill="#ffffff" />
    <path
       id="path44"
       d="m 259.41,93.63 c 6.76,-1.56 14.43,0.7 18.64,6.35 5.67,7.22 4.64,18.72 -2.44,24.63 -8.22,7.36 -23.13,4.87 -27.86,-5.33 -5.31,-9.75 0.55,-23.53 11.66,-25.65 m 0.9,7.45 c -8.43,3.05 -8.44,16.68 -0.1,19.84 6.47,2.87 13.86,-3.12 13.42,-9.92 0.45,-6.75 -6.88,-12.71 -13.32,-9.92 z"
       opacity="1"
       fill="#ffffff" />
    <path
       id="path46"
       d="m 298.38,93.59 c 6.51,-1.38 13.86,0.62 18.1,5.91 6.21,7.27 5.15,19.57 -2.47,25.46 -6.98,5.69 -18.28,5.11 -24.47,-1.5 -4.71,-4.6 -5.86,-11.93 -4.06,-18.09 1.73,-5.9 6.95,-10.46 12.9,-11.78 m 0.04,7.81 c -7.9,3.6 -7.44,16.63 0.78,19.57 7.27,3.15 14.88,-4.77 13.07,-11.99 -0.76,-6.28 -8.12,-10.63 -13.85,-7.58 z"
       opacity="1"
       fill="#ffffff" />
    <path
       id="path48"
       d="m 327.12,100.1 c 4.99,-7.1 16.34,-9.63 22.88,-3.2 0.01,-0.67 0.04,-2.01 0.06,-2.68 2.56,0.03 5.13,0.03 7.7,0.03 -0.02,10.59 0.01,21.19 -0.01,31.79 -0.02,5.42 -1.35,11.36 -5.67,15 -6.71,5.48 -17.74,5.03 -23.67,-1.43 -1.58,-1.55 -2.61,-3.54 -3.67,-5.45 2.29,-1 4.61,-1.95 6.91,-2.94 1.24,1.78 2.48,3.65 4.29,4.93 3.98,2.57 10.15,1.59 12.62,-2.63 1.62,-2.52 1.44,-5.61 1.5,-8.48 -5.34,5.4 -14.57,4.72 -20.09,-0.04 -7.37,-5.84 -8.65,-17.54 -2.85,-24.9 m 10.23,1.2 c -7.61,3.47 -7.79,16.01 -0.01,19.41 6.37,3.42 13.93,-2.95 13.2,-9.71 0.58,-6.76 -6.73,-13.09 -13.19,-9.7 z"
       opacity="1"
       fill="#ffffff" />
    <path
       id="path50"
       d="m 379.67,97.66 c 4.26,-4.15 10.85,-5.46 16.48,-3.77 5.73,1.87 9.49,7.24 11.22,12.79 -7.88,3.32 -15.82,6.53 -23.71,9.82 1.79,2.89 4.71,5.38 8.33,5.11 3.74,0.33 6.49,-2.36 9.01,-4.68 2.13,1.11 4.07,2.54 6.1,3.84 -5.29,8.81 -18.32,10.66 -26.2,4.34 -8.28,-6.45 -8.7,-20.23 -1.23,-27.45 m 2.4,12.48 c 5.45,-1.83 10.69,-4.25 15.99,-6.48 -1.98,-2.16 -4.77,-4.01 -7.83,-3.27 -4.72,0.77 -7.67,5.25 -8.16,9.75 z"
       opacity="1"
       fill="#ffffff" />
    <path
       id="path52"
       d="m 476.97,101.29 c 3.74,-8.54 15.37,-10.23 22.98,-6.19 4.33,2.21 7.13,6.95 7.05,11.81 0.02,6.96 0.01,13.91 -0.02,20.86 -2.57,-0.02 -5.12,-0.03 -7.68,0.02 -0.03,-0.81 -0.1,-2.43 -0.13,-3.24 -4.99,5.4 -14.08,5.63 -19.5,0.78 -4.72,-4.11 -4.69,-12.46 0.32,-16.32 5.46,-4.43 13.18,-4.46 19.51,-2.02 -0.61,-4.48 -5.21,-7.25 -9.51,-6.52 -2.57,0 -4.31,2.02 -6.13,3.52 -2.37,-0.73 -4.6,-1.8 -6.89,-2.7 m 8.89,12.59 c -2.34,1.65 -2.2,5.65 0.55,6.83 5.43,2.86 12.34,-1.44 12.87,-7.38 -4.25,-1.51 -9.57,-2.41 -13.42,0.55 z"
       opacity="1"
       fill="#ffffff" />
    <path
       id="path54"
       d="m 507.25,94.36 c 2.9,-0.14 5.81,-0.12 8.72,-0.13 3.19,7.38 5.8,15.03 9.36,22.24 3.1,-7.35 5.62,-14.95 8.96,-22.19 2.94,-0.14 5.88,-0.01 8.82,0 -7.13,16.3 -14.14,32.66 -21.34,48.93 -2.77,0.63 -5.66,0.19 -8.48,0.24 2.46,-5.87 5.35,-11.56 7.7,-17.47 -4.24,-10.67 -9.18,-21.08 -13.74,-31.62 z"
       opacity="1"
       fill="#ffffff" />
  </g>
  <g
     id="g874"
     transform="translate(9.371028,27.987567)">
    <g
       id="#01ee76ff"
       transform="matrix(0.17924627,0,0,0.17924627,-14.709286,-29.037905)">
      <path
         fill="#01ee76"
         opacity="1"
         d="m 61.19,34.25 c 1.77,-0.99 3.6,-2.42 5.76,-2 3.21,0.57 5.92,2.52 8.72,4.06 18.8,10.68 37.61,21.34 56.39,32.05 -5.92,5.77 -11.71,11.68 -17.54,17.55 -0.23,0.05 -0.7,0.17 -0.93,0.22 C 99.12,70.72 83.7,56.2 68.96,41.04 66.6,38.53 63.99,36.26 61.19,34.25 Z"
         id="path57" />
    </g>
    <g
       id="#00d3ffff"
       transform="matrix(0.17924627,0,0,0.17924627,-14.709286,-29.037905)">
      <path
         fill="#00d3ff"
         opacity="1"
         d="m 61.19,34.25 c 2.8,2.01 5.41,4.28 7.77,6.79 C 83.7,56.2 99.12,70.72 113.59,86.13 96.8,103.24 79.7,120.05 62.85,137.1 l -0.74,0.19 c -2.58,-0.74 -1.64,-4.17 -2.1,-6.21 C 59.99,103.39 60,75.69 60.01,48 60,43.4 59.68,38.69 61.19,34.25 Z"
         id="path60" />
    </g>
    <g
       id="#ffcb00ff"
       transform="matrix(0.17924627,0,0,0.17924627,-14.709286,-29.037905)">
      <path
         fill="#ffcb00"
         opacity="1"
         d="m 114.52,85.91 c 5.83,-5.87 11.62,-11.78 17.54,-17.55 6.49,3.73 13.04,7.36 19.53,11.1 2.37,1.41 5.2,3.42 4.98,6.54 0.04,3.1 -2.68,5.14 -5.1,6.53 -6.48,3.67 -12.97,7.35 -19.46,11.02 -5.99,-5.72 -11.79,-11.64 -17.49,-17.64 z"
         id="path63" />
    </g>
    <g
       id="#f4324aff"
       transform="matrix(0.17924627,0,0,0.17924627,-14.709286,-29.037905)">
      <path
         fill="#f4324a"
         opacity="1"
         d="m 113.59,86.13 c 0.23,-0.05 0.7,-0.17 0.93,-0.22 5.7,6 11.5,11.92 17.49,17.64 -20.33,11.47 -40.61,23.04 -60.95,34.51 -2.41,1.41 -6.79,2.71 -8.39,-0.24 l 0.18,-0.72 C 79.7,120.05 96.8,103.24 113.59,86.13 Z"
         id="path66" />
    </g>
  </g>
</svg>
