<svg enable-background="new 0 0 3713 504.79999" viewBox="0 0 3713 504.79999" xmlns="http://www.w3.org/2000/svg"><g fill="#fff"><path d="m724.39978 498.70001c-24.09998 0-48.29999-.70001-72.09998-2.29999-25.09998-1.70001-50.09998-5.20001-74.70001-10.39999v-427.00003c20.20001-3.9 42.70001-6.5 66.90002-8.5 24.09998-2 46.59998-2.9 67.5-2.9 28.09998 0 53.79999 2 77.29999 6.2 23.5 3.9 43.70001 10.8 60.70001 20.5 17 9.8 30.29999 22.5 39.79999 38.5s14.40002 35.59999 14.40002 58.7c0 35.2-17 62.89999-50.90002 83.2 28.09998 10.40001 47 25.09999 57.09998 43.09999 10.09998 18.29999 15.29999 38.79999 15.29999 61.60001 0 46.29999-17 80.89999-50.59998 104.10001-34.20001 23.79998-84.10003 35.2-150.70001 35.2zm-50.20001-273.00001h48.29999c30.70001 0 52.20001-3.89999 65.59998-11.7 13-7.8 19.59998-20.5 19.59998-37.8 0-17.89999-6.79999-30.3-20.20001-37.5-13.70001-7.2-33.59998-10.8-59.70001-10.8-8.5 0-17.59998 0-27.40002.3s-18.29999.7-26.09998 1.60001c-.09993-.00001-.09993 95.89999-.09993 95.89999zm0 75.69999v113.80002c7.20001 1 15 1.60001 23.5 2s17.90002.70001 28.09998.70001c29.70001 0 53.5-4.20001 71.79999-12.70001s27.40002-24.10001 27.40002-47c0-20.20001-7.5-34.89999-22.79999-43.39999-15.29999-8.79999-37.20001-13-65.59998-13h-62.29999v-.39999z"/><path d="m1066.89978 62.3c0 17.3-5.5 31-17 41.09999-11.09998 10.1-24.5 15-39.79999 15-14.70001.2-28.90002-5.1-39.79999-15-11.09998-10.1-17-23.5-17-41.1 0-17.3 5.5-31 17-41.1 10.90002-9.8 25.09998-15.2 39.79999-15 14.70001-.2 28.89996 5.1 39.79999 15 11.40002 10.10001 17 23.80001 17 41.10001zm-9.09998 430.90001h-94.59998v-334.40001h94.59998z"/><path d="m1108.69971 75.6 94.59998-15.3v98.5h113.80005v78.90001h-113.80005v117.39999c0 19.89999 3.59998 35.89999 10.40002 47.60001s21.19995 17.89999 42.40002 17.89999c10.5-.10001 21-1 31.30005-2.89999 10.09998-1.79999 20-4.39999 29.69995-7.79999l13.40002 73.70001c-12.40002 5-25.19995 9.10001-38.19995 12.10001-14 3.29999-31 5.20001-51.5 5.20001-25.80005 0-47.30005-3.60001-64.30005-10.39999s-30.69995-16.60001-40.80005-29.39999c-10.09998-12.39999-17.30005-27.70001-21.19995-45.29999-4.19995-19.39999-6.30005-39.20001-6.19995-59v-281.20008z"/><path d="m1330.49976 326.10001c-.19995-23.20001 3.80005-46.29999 11.69995-68.19998 7.40002-20.7 18.90002-39.7 33.90002-55.8 14.69995-16 32.90002-28.39999 54.09998-37.8 21.19995-9.5 45.30005-14 72.40002-14 17.90002 0 34.19995 1.60001 48.90002 4.89999 14.80005 3.2 29.19995 7.8 43.09998 13.7l-19.59998 75.7c-9.59998-3.5-19.40002-6.5-29.40002-8.8-11.69995-2.7-23.59998-4-35.59998-3.89999-28.09998 0-48.90002 8.8-62.59998 26.09999s-20.5 40.10001-20.5 68.5c0 30 6.5 53.5 19.19995 69.79999 13 16.60001 35.59998 24.79999 67.5 24.79999 12.40002 0 24.69995-1.10001 36.90002-3.29999 12.40002-1.89999 24.59998-5.29999 36.19995-10.10001l13.40002 77.60001c-13.40002 5.39999-27.19995 9.39999-41.40002 12.10001-18.09998 3.5-36.40002 5.29999-54.80005 5.20001-30.69995 0-56.80005-4.60001-78.90002-13.70001-22.19995-9.10001-40.09998-21.5-54.5-37.20001s-24.5-34.20001-31-55.5c-5.89989-22.90002-8.89989-46.40002-8.99986-70.1z"/><path d="m1926.09973 325.5c0 26.39999-3.90002 50.20001-11.40002 72.10001s-18.59998 40.39999-32.90003 55.79998c-14.59998 15.5-32.30005 27.70001-51.90002 35.89999-20.30005 8.5-42.69995 12.70001-67.5 12.70001-24.5 0-47-4.20001-67.19995-12.70001-19.69995-8.10001-37.30005-20.39999-51.90002-35.89999-14.40002-15.29999-25.80005-34.20001-33.59998-55.79999-8.19995-21.89999-12.09998-46-12.09998-72.10001 0-26.39999 4.19995-50.20001 12.40002-71.8 8.19995-21.5 19.59998-40.09999 34.19995-55.09999 14.80005-15.3 32.5-27.5 52.19995-35.60001 20.19995-8.5 42.09998-12.7 65.90002-12.7 24.09998 0 46.30005 4.2 66.5 12.7s37.5 20.2 51.90002 35.60001c14.80005 15.89999 26.30005 34.60001 33.59998 55.10001 7.60011 21.59998 11.80006 45.4 11.80006 71.79999zm-96.5 0c0-29.39999-5.90002-52.20001-17.59998-68.79999s-28.40002-25.10001-49.90002-25.10001-38.5 8.5-50.19995 25.10001-17.90002 39.79999-17.90002 68.79999c0 29.39999 5.90002 52.5 17.90002 69.5 11.69995 17.29999 28.69995 25.79999 50.19995 25.79999s38.19995-8.5 49.90002-25.79999 17.59998-40.5 17.59998-69.5z"/><path d="m2067.69971 62.3c0 17.3-5.5 31-17 41.09999-11.09998 10.1-24.5 15-39.80005 15-14.69995.2-28.90002-5.1-39.80005-15-11.09998-10.1-17-23.5-17-41.1 0-17.3 5.5-31 17-41.1 10.90002-9.8 25.09998-15.2 39.80005-15 14.69995-.2 28.90002 5.1 39.80005 15 11.40014 10.10001 17 23.80001 17 41.10001zm-8.80005 430.90001h-94.59998v-334.40001h94.59998z"/><path d="m2112.69971 170.2c16-4.60001 36.8999-9.10001 62.30005-13 26.3999-4.10001 53.1001-6.2 79.8999-6.2 28.3999 0 51.8999 3.60001 70.80005 11.10001s33.8999 17.89999 44.69995 31.3c11.1001 13.7 18.8999 29.7 23.5 48.3s6.80005 39.5 6.80005 62.29999v188.89999h-94.6001v-177.5c0-30.70001-3.8999-52.20001-12.1001-64.89999s-23.19995-18.89999-45-18.89999c-6.80005 0-14 .3-21.5 1s-14.3999 1.3-20.19995 2.3v258h-94.6001z"/></g><path d="m2659.39966 502c-71.80005 0-126.19995-19.89999-163.69995-59.70001s-56.1001-96.20001-56.1001-169.60001c0-36.5 5.8999-68.8 17.30005-97.5s27.1001-52.8 47-72.4c20.19995-19.8 44.5-35.1 71.1001-44.7 27.3999-10.1 57.3999-15.3 89.69995-15.3 18.6001 0 35.6001 1.3 50.8999 4.2 13.6001 2.2 27 5.4 40.1001 9.5 9.80005 3 19.3999 6.7 28.69995 11.1 7.5 3.9 13 6.8 16.6001 8.8l-28.69995 79.9c-15.1001-7.8-30.8999-13.89999-47.30005-18.3-17.8999-5.2-38.5-7.5-61.30005-7.5-15.19995 0-30.30005 2.60001-44.69995 7.5-14.6001 5.2-27.80005 13.60001-38.80005 24.5-11.1001 11.10001-20.19995 25.8-27.1001 43.40001-6.80005 17.89999-10.1001 39.5-10.1001 64.89999-.1001 19.10001 2.1001 38.20001 6.5 56.79999 4.6001 17.60001 11.69995 32.60001 21.5 45.29999 10.3999 13.10001 23.80005 23.5 39.1001 30.29999 16 7.5 35.6001 11.10001 58.3999 11.10001 13 0 25.8999-.79999 38.80005-2.60001 10.3999-1.39999 20.6001-3.39999 30.69995-6.20001 8-2 15.8999-4.60001 23.5-7.79999 6.80005-2.89999 13-5.89999 18.30005-8.20001l27.3999 79.60001c-14 8.5-33.6001 16-59 22.79999-25.89966 6.80007-55.49975 10.10006-88.7998 10.10006z" fill="#0ac18e"/><path d="m2955.59985 150c28.1001 0 51.19995 3.3 69.80005 9.5s33.6001 15.3 44.69995 27.39999c11.3999 12.2 19.5 27 23.80005 43.10001 4.6001 17 6.80005 35.89999 6.80005 56.39999v197c-13.69995 2.89999-32.30005 6.5-56.3999 10.39999s-53.5 6.20002-87.69995 6.20002c-21.5 0-41.1001-2-58.69995-5.89999-17.6001-3.89999-32.6001-10.10001-45.30005-18.60001-12.6001-8.60001-22.69995-20.20001-29.3999-33.89999-6.80005-14-10.1001-31-10.1001-51.5 0-19.60001 3.8999-35.89999 11.69995-49.60001 7.3999-13.29999 18.19995-24.39999 31.30005-32.29999 13-8.20001 28.1001-14 45-17.60001 17.3999-3.70001 35.1001-5.5 52.80005-5.5 12.3999 0 23.19995.70001 32.6001 1.60001 9.5 1 17.30005 2.29999 23.19995 4.20001v-8.79999c0-16-4.8999-29-14.69995-38.8s-26.69995-14.7-50.8999-14.7c-15.8999 0-31.80005 1.2-47.6001 3.60001-15.69995 2.3-29.3999 5.5-40.80005 9.8l-12.1001-76.3c5.5-1.60001 12.3999-3.60001 20.5-5.5 8.19995-2 17.30005-3.60001 27.1001-5.2s19.8999-2.60001 30.69995-3.89999c11.49951-.40005 22.59961-1.10005 33.6997-1.10005zm7.5 276.89999c9.5 0 18.30005-.29999 26.69995-.70001 6.80005-.10001 13.5-.79999 20.19995-2v-71.80002c-3.8999-1-9.5-1.60001-17.30005-2.60001-6.8999-.89999-13.8999-1.29999-20.8999-1.29999-8.3999.10001-16.80005.60001-25.1001 1.60001-7.80005 1-14.69995 2.89999-20.5 6.20001-5.69995 2.70001-10.5 6.89999-14 12.10001-3.5 5.70001-5.30005 12.20001-5.19995 18.89999 0 14.70001 4.8999 25.10001 15 30.70001 10.1001 6.3 23.80005 8.9 41.1001 8.9z" fill="#0ac18e"/><path d="m3247.7998 425.29999c17.30005 0 29.69995-1.60001 36.8999-5.20001 7.19995-3.29999 10.80005-10.10001 10.80005-19.60001 0-7.5-4.6001-14.39999-14-19.89999-9.5-5.89999-23.5-12.10001-42.69995-19.20001-14.69995-5.5-28.3999-11.10001-40.3999-17.29999-12.1001-5.89999-22.5-13-30.69995-21.20001-8.6001-8.39999-15.19995-18.5-19.6001-29.70001-4.6001-11.39999-6.80005-25.10001-6.80005-41.39999 0-31.3 11.69995-56.10001 34.8999-74.39999s55.1001-27.39999 95.8999-27.39999c19.6001 0 39.1001 1.89999 58.3999 5.5 18.6001 3.60001 33.6001 7.5 44.3999 11.7l-16.6001 73.7c-11.80005-4.10001-23.69995-7.5-35.8999-10.10001-14.30005-3.10001-28.80005-4.7-43.3999-4.60001-29.69995 0-44.3999 8.2-44.3999 24.8-.1001 3.5.6001 6.90001 2 10.09999 1.69995 3.39999 4.30005 6.39999 7.5 8.5 5 3.39999 10.19995 6.29999 15.69995 8.79999 8.1001 4 16.5 7.39999 25.1001 10.39999 20.8999 7.79999 37.80005 15.29999 51.5 22.79999s24.1001 15.70001 32 24.10001c7.5 8.29999 13.19995 18 16.6001 28.70001 3.30005 10.39999 4.8999 22.79999 4.8999 36.89999 0 32.89999-12.3999 58.10001-37.19995 74.70001-24.80005 17-59.69995 25.39999-105 25.39999-29.69995 0-54.5-2.60001-74-7.5-19.6001-5.20001-33.30005-9.5-41.1001-12.70001l16-77c16.1001 6.29999 32.69995 11.29999 49.6001 15 16.30006 4.10006 32.90015 6.10006 49.6001 6.10006z" fill="#0ac18e"/><path d="m3424.99976 493.20001v-477.90001l94.6001-15.3v160.2c8-2.5 16.19995-4.60001 24.5-6.2 9.5-1.89999 19.30005-2.89999 29-2.89999 27.1001 0 49.6001 3.60001 67.5 11.10001s32.30005 17.89999 43.1001 31.3c10.80005 13.7 18.30005 29.7 22.80005 48.3 4.6001 18.60001 6.5 39.5 6.5 62.29999v188.89999h-94.6001v-177.60001c0-30.70001-3.8999-52.20001-11.69995-64.89999s-22.5-18.89999-43.3999-18.89999c-8-.10001-16 .7-23.80005 2.3-7.5 1.60001-14 2.89999-19.8999 4.89999v254.10002h-94.60034v.29999z" fill="#0ac18e"/><circle cx="249.2" cy="255.2" fill="#0ac18e" r="249.2"/><path d="m327 171.8c-12.5-28.39999-41.20001-34.3-76.40001-28.5l-11.3-43.8-26.7 6.9 11.10001 43.7c-7 1.8-14.2 3.3-21.3 5.3l-11.2-43.4-26.7 6.9 11.3 43.8c-5.7 1.60001-53.7 14-53.7 14l7.4 28.5s19.60001-5.5 19.39999-5c10.8-2.8 15.89999 2.60001 18.39999 7.7l31 120c.39999 3.5-.2 9.5-7.7 11.39999.39999.20001-19.39999 5-19.39999 5l2.9 33.20001s47.5-12.20001 53.8-13.70001l11.5 44.29999 26.60001-6.9-11.40001-44.59998c7.40001-1.70001 14.40001-3.49999 21.40001-5.29998l11.39996 44.39999 26.70001-6.89999-11.39996-44.20001c41-10 70-35.79999 64-75.39999-3.79999-23.8-29.79999-43.39999-51.5-45.60001 13.19995-12 20-29.30001 11.79999-51.80001zm-12.90002 104.40001c5.29999 39.20001-49.09998 44-67.19998 48.70001l-15.7-58.60001c18.19999-4.80001 74.00001-24.7 82.89998 9.9zm-32.79999-79.80002c5.60004 34.8-40.89998 38.89999-55.99998 42.8l-14.20002-53.19999c15.10001-3.89999 58.79997-21.8 70.2 10.39999z" fill="#fff"/></svg>