<svg enable-background="new 0 0 360 360" height="360" viewBox="0 0 360 360" width="360" xmlns="http://www.w3.org/2000/svg"><circle cx="180" cy="180.001" fill="#222" r="176.4"/><g fill="#fff"><path d="m75.251 274.833-19.326 17.542c1.895 2.09 3.841 4.133 5.837 6.125l18.456-18.455c-1.699-1.695-3.355-3.433-4.967-5.212z"/><path d="m65.015 262.135c-1.127-1.575-2.218-3.177-3.28-4.798l-21.768 14.403c1.229 1.874 2.49 3.725 3.792 5.545z"/><path d="m30.336 255.05 23.354-11.661c-1.752-3.484-3.364-7.05-4.829-10.691l-24.2 9.789c1.724 4.279 3.618 8.469 5.675 12.563z"/><path d="m19.793 228.666 24.985-7.566c-.572-1.886-1.113-3.784-1.608-5.702l-25.267 6.567c.582 2.253 1.218 4.485 1.89 6.701z"/><path d="m15.172 209.383 25.702-4.56c-.337-1.906-.63-3.828-.891-5.76l-25.858 3.552c.307 2.27.65 4.528 1.047 6.768z"/><path d="m13.414 196.563 25.977-2.54c-.377-3.824-.596-7.694-.661-11.602l-26.094.508c.079 4.592.337 9.14.778 13.634z"/><path d="m15.53 148.717 25.638 4.902c.368-1.946.768-3.881 1.215-5.798l-25.426-5.918c-.524 2.253-.994 4.527-1.427 6.814z"/><path d="m18.386 136.255 25.171 6.917c2.039-7.57 4.686-14.89 7.894-21.9l-23.789-10.753c-3.765 8.241-6.874 16.842-9.276 25.736z"/><path d="m33.21 99.48 22.875 12.575c.94-1.711 1.912-3.402 2.92-5.07l-22.362-13.463c-1.185 1.96-2.328 3.948-3.433 5.958z"/><path d="m48.862 75.957 20.431 16.24c1.229-1.547 2.484-3.07 3.775-4.564l-19.77-17.04c-1.516 1.755-2.992 3.546-4.436 5.364z"/><path d="m80.348 79.83c2.751-2.737 5.619-5.357 8.586-7.861l-16.864-19.918c-3.487 2.944-6.855 6.022-10.09 9.238z"/><path d="m106.473 59.318c1.672-1.021 3.37-2.002 5.087-2.955l-12.667-22.823c-2.018 1.12-4.013 2.273-5.978 3.472z"/><path d="m122.6 50.854c3.583-1.595 7.245-3.043 10.978-4.341l-8.631-24.637c-4.374 1.522-8.666 3.22-12.865 5.086z"/><path d="m138.141 45.006c5.514-1.708 11.172-3.087 16.951-4.115l-4.689-25.681c-6.791 1.211-13.438 2.835-19.919 4.839z"/><path d="m170.935 38.998c1.947-.123 3.902-.213 5.869-.257l-.562-26.093c-2.332.052-4.649.158-6.957.304z"/><path d="m189.229 39.009c1.977.127 3.943.291 5.896.499l2.769-25.954c-2.296-.244-4.606-.436-6.929-.586z"/><path d="m210.776 42.072c7.65 1.699 15.065 4.019 22.192 6.902l9.688-24.241c-8.378-3.384-17.092-6.11-26.079-8.113z"/><path d="m237.414 50.861c1.795.799 3.567 1.636 5.321 2.507l11.565-23.402c-2.062-1.023-4.146-2.008-6.254-2.947z"/><path d="m253.59 59.357c3.342 2.043 6.589 4.226 9.74 6.531l15.348-21.111c-3.705-2.708-7.521-5.272-11.447-7.674z"/><path d="m283.759 84.097 19.193-17.684c-1.545-1.672-3.118-3.319-4.73-4.927l-18.448 18.462c1.357 1.355 2.682 2.741 3.985 4.149z"/><path d="m311.29 76.146-20.484 16.174c1.217 1.536 2.399 3.1 3.553 4.687l21.106-15.353c-1.357-1.864-2.745-3.703-4.175-5.508z"/><path d="m323.65 94.019-22.408 13.385c1.022 1.705 2.016 3.428 2.967 5.178l22.929-12.479c-1.119-2.056-2.286-4.082-3.488-6.084z"/><path d="m329.951 105.531-23.399 11.571c1.73 3.475 3.327 7.028 4.772 10.658l24.234-9.704c-1.7-4.265-3.575-8.441-5.607-12.525z"/><path d="m339.778 129.925-24.918 7.787c.578 1.845 1.112 3.709 1.616 5.586l25.2-6.808c-.591-2.206-1.219-4.396-1.898-6.565z"/><path d="m347.347 184.238c.035-1.408.054-2.82.054-4.237 0-3.215-.1-6.407-.279-9.577l-26.059 1.447c.152 2.691.238 5.4.238 8.13 0 1.212-.016 2.42-.046 3.625z"/><path d="m344.758 209.778-25.683-4.668c-.352 1.96-.751 3.903-1.183 5.834l25.51 5.535c.494-2.218.952-4.45 1.356-6.701z"/><path d="m341.938 222.547-25.241-6.658c-.495 1.892-1.028 3.769-1.599 5.628l24.961 7.644c.67-2.185 1.296-4.39 1.879-6.614z"/><path d="m332.458 249.224-23.76-10.815c-.818 1.801-1.677 3.58-2.567 5.34l23.31 11.75c1.046-2.068 2.054-4.159 3.017-6.275z"/><path d="m326.712 260.66-22.827-12.66c-3.758 6.833-8.062 13.323-12.857 19.407l20.575 16.06c5.631-7.154 10.687-14.781 15.109-22.807z"/><path d="m284.375 275.243c-1.49 1.632-3.018 3.23-4.582 4.791l18.456 18.455c1.837-1.834 3.631-3.712 5.382-5.629z"/></g><circle cx="180" cy="180.00101" fill="#fff" r="132.299"/><path d="m221.268 135.577c-6.647-15.076-21.926-18.301-40.629-15.178l-6.011-23.302-14.169 3.659 5.91 23.238c-3.729.94-7.557 1.745-11.35 2.821l-5.911-23.103-14.17 3.661 6.012 23.303c-3.056.872-28.608 7.42-28.608 7.42l3.895 15.178s10.409-2.921 10.309-2.687c5.775-1.511 8.495 1.377 9.771 4.097l16.521 63.866c.202 1.848-.134 5.004-4.095 6.078.234.134-10.309 2.652-10.309 2.652l1.544 17.697s25.318-6.482 28.641-7.321l6.079 23.572 14.17-3.659-6.078-23.74c3.896-.907 7.69-1.848 11.383-2.821l6.045 23.605 14.17-3.66-6.078-23.538c21.826-5.307 37.238-19.074 34.082-40.127-2.015-12.692-15.881-23.101-27.4-24.277 7.08-6.28 10.675-15.448 6.276-27.434zm-6.816 55.572c2.82 20.853-26.159 23.404-35.729 25.922l-8.327-31.194c9.604-2.518 39.287-13.095 44.056 5.272zm-17.461-42.476c2.987 18.536-21.793 20.684-29.784 22.731l-7.59-28.306c8.027-1.981 31.296-11.584 37.374 5.575z" fill="#222"/><g fill="#fff"><path d="m267.859 318.099c.804-.518 1.322-.962 1.555-1.334s.204-.783-.087-1.234c-.228-.354-.643-.523-1.244-.511-.603.014-1.452.138-2.55.373-.851.188-1.645.323-2.38.408-.736.086-1.424.063-2.063-.066s-1.236-.39-1.793-.78c-.558-.391-1.075-.959-1.556-1.705-.935-1.451-1.135-2.946-.599-4.484.535-1.538 1.745-2.915 3.628-4.127.941-.606 1.897-1.104 2.868-1.494.971-.389 1.774-.649 2.41-.782l1.434 3.906c-.624.152-1.279.352-1.966.6s-1.403.612-2.148 1.092c-1.373.885-1.813 1.709-1.32 2.475.113.176.244.314.392.414.147.099.351.155.608.169.259.015.588-.002.987-.05.4-.048.893-.134 1.478-.26 1.19-.263 2.211-.423 3.063-.481.851-.058 1.586-.003 2.207.164.622.168 1.164.449 1.626.843.462.395.901.915 1.317 1.561.983 1.527 1.153 3.052.51 4.574-.644 1.521-2.015 2.958-4.113 4.311-1.374.884-2.592 1.502-3.656 1.854-1.063.352-1.822.563-2.276.634l-1.558-4.034c.935-.186 1.849-.448 2.74-.787.893-.34 1.721-.756 2.486-1.249z"/><path d="m238.328 318.055c.685-.619 1.608-1.334 2.771-2.146 1.161-.813 2.435-1.556 3.819-2.229 1.405-.684 2.665-1.069 3.777-1.157 1.111-.087 2.104.072 2.977.478.872.406 1.648 1.015 2.328 1.825.681.812 1.296 1.783 1.848 2.916l4.55 9.347-4.689 2.282-4.273-8.78c-.735-1.511-1.456-2.483-2.16-2.919-.705-.436-1.604-.388-2.694.144-.336.163-.685.353-1.047.568s-.68.415-.953.6l6.219 12.777-4.688 2.282z"/><path d="m221.923 332.976c-.517-1.549-.731-2.984-.643-4.306.088-1.32.391-2.497.907-3.53s1.211-1.917 2.086-2.651c.874-.734 1.843-1.278 2.905-1.633 2.479-.826 4.69-.722 6.635.314 1.944 1.037 3.408 3.027 4.39 5.971.096.288.189.607.282.958.092.351.171.662.238.935l-11.223 3.742c.45.981 1.195 1.631 2.235 1.948 1.041.317 2.27.239 3.686-.233.908-.303 1.771-.683 2.59-1.14.819-.458 1.465-.9 1.938-1.329l2.003 3.797c-.221.221-.531.472-.93.752-.398.281-.852.562-1.361.842s-1.063.558-1.659.83c-.599.273-1.207.513-1.826.72-1.572.524-3.017.747-4.333.67-1.317-.077-2.492-.393-3.525-.945-1.033-.554-1.917-1.322-2.651-2.308s-1.316-2.12-1.744-3.404zm10.989-5.768c-.162-.413-.371-.799-.625-1.156-.255-.358-.562-.649-.919-.875-.358-.225-.765-.372-1.218-.442-.454-.07-.969-.009-1.544.183-.554.185-.998.438-1.333.759-.336.321-.585.681-.747 1.079s-.247.826-.255 1.284.026.907.1 1.35z"/><path d="m208.688 332.985c.393-.647.796-1.321 1.214-2.021.416-.699.817-1.391 1.202-2.072.386-.682.747-1.329 1.087-1.942.339-.612.63-1.145.871-1.597l6.077-1.232c-.93 1.639-1.844 3.207-2.741 4.708-.898 1.5-1.896 3.063-2.995 4.688.812.479 1.67 1.074 2.576 1.784.905.711 1.795 1.455 2.666 2.232.872.777 1.687 1.565 2.444 2.366.757.8 1.407 1.539 1.949 2.216l-5.877 1.191c-.486-.521-1.036-1.096-1.65-1.724-.614-.627-1.257-1.248-1.929-1.863s-1.365-1.197-2.082-1.743c-.717-.547-1.408-.992-2.071-1.335l1.604 7.908-5.11 1.036-5.231-25.795 4.944-1.859z"/><path d="m199.98 337.171c.099 1.443-.021 2.778-.358 4.006-.337 1.229-.873 2.294-1.605 3.197-.733.904-1.637 1.626-2.711 2.167s-2.298.859-3.671.953c-1.35.092-2.594-.057-3.731-.447-1.138-.39-2.131-.982-2.98-1.778-.85-.795-1.537-1.777-2.061-2.946-.524-1.168-.835-2.474-.934-3.918-.099-1.442.038-2.773.411-3.992.373-1.218.932-2.273 1.678-3.167.746-.893 1.656-1.609 2.73-2.15s2.262-.856 3.566-.945c1.327-.091 2.559.059 3.697.448 1.137.391 2.13.978 2.979 1.761.848.784 1.535 1.755 2.058 2.912s.834 2.456.932 3.899zm-5.308.362c-.11-1.606-.516-2.847-1.219-3.723s-1.648-1.273-2.835-1.192-2.076.604-2.664 1.568c-.589.964-.829 2.249-.719 3.855s.522 2.858 1.239 3.757c.716.898 1.668 1.307 2.855 1.226s2.068-.615 2.645-1.602c.575-.985.808-2.282.698-3.889z"/><path d="m182.977 323.461-.225 4.65-7.306-.354-.948 19.577-5.454-.264.948-19.577-7.307-.354.225-4.649z"/><path d="m141.82 343.217 4.758-25.887 5.281.116-1.594 8.675c.365-.051.827-.079 1.385-.083.558-.005 1.09.04 1.595.133 1.468.27 2.653.695 3.556 1.276.901.581 1.577 1.292 2.027 2.134s.703 1.79.758 2.844c.056 1.055-.031 2.201-.258 3.44l-1.879 10.224-5.129-.943 1.765-9.604c.304-1.652.307-2.862.009-3.628-.298-.767-1.021-1.256-2.168-1.467-.459-.084-.897-.123-1.313-.116-.417.007-.794.026-1.132.059l-2.531 13.77z"/><path d="m130.614 336.075c.914.283 1.587.396 2.022.335.434-.061.73-.347.89-.859.125-.4-.012-.828-.408-1.281-.397-.453-1.038-1.024-1.922-1.716-.69-.532-1.304-1.053-1.841-1.563-.538-.509-.962-1.051-1.273-1.624s-.495-1.198-.553-1.876.045-1.439.308-2.287c.513-1.648 1.531-2.761 3.055-3.338 1.523-.577 3.354-.533 5.493.133 1.07.332 2.064.746 2.986 1.24.921.494 1.637.943 2.147 1.346l-2.075 3.606c-.518-.381-1.091-.755-1.722-1.122s-1.37-.683-2.216-.946c-1.56-.484-2.475-.293-2.745.576-.063.2-.084.39-.066.565.018.178.105.369.261.576.155.208.379.449.672.725s.675.599 1.147.967c.965.744 1.744 1.424 2.335 2.038.59.615 1.021 1.214 1.292 1.798.27.584.402 1.181.397 1.788-.006.607-.123 1.278-.351 2.012-.54 1.734-1.599 2.843-3.179 3.327-1.58.483-3.562.354-5.946-.387-1.56-.485-2.816-1.022-3.769-1.612s-1.603-1.035-1.948-1.339l2.093-3.784c.742.598 1.53 1.13 2.362 1.597.835.467 1.686.835 2.554 1.105z"/><path d="m119.339 315.592c1.408.624 2.51 1.304 3.307 2.04.796.735 1.345 1.528 1.646 2.376.3.848.379 1.75.236 2.707-.144.958-.447 1.959-.91 3.004l-4.396 9.92c-.75-.153-1.776-.397-3.082-.734-1.306-.336-2.823-.887-4.55-1.653-1.088-.481-2.033-1.015-2.833-1.6-.8-.584-1.423-1.236-1.87-1.958-.446-.72-.684-1.509-.713-2.364-.03-.854.183-1.794.636-2.818.435-.98 1-1.726 1.698-2.233.697-.508 1.466-.817 2.307-.93.84-.112 1.728-.07 2.662.127.933.196 1.859.498 2.776.904.618.274 1.156.545 1.612.811.457.267.814.508 1.076.726l.199-.448c.359-.811.402-1.569.129-2.277s-1.018-1.332-2.233-1.871c-.811-.359-1.637-.654-2.478-.888-.842-.232-1.598-.369-2.268-.411l1.094-4.109c.314.038.702.101 1.16.188.458.089.949.204 1.474.347.523.144 1.069.309 1.637.496.568.186 1.129.402 1.684.648zm-5.799 14.122c.469.207.921.396 1.358.563.436.168.792.287 1.066.357l1.603-3.616c-.173-.127-.442-.297-.807-.511-.365-.213-.708-.39-1.028-.531-.448-.199-.881-.358-1.299-.48s-.81-.174-1.174-.157c-.365.018-.689.116-.974.296-.284.181-.511.463-.681.847-.331.747-.31 1.375.064 1.886.373.509.997.957 1.872 1.346z"/><path d="m94.008 324.248c-3.354-2.073-5.333-4.585-5.937-7.537-.604-2.95.155-6.144 2.277-9.578 1.055-1.707 2.265-3.064 3.628-4.073s2.797-1.687 4.301-2.033c1.503-.347 3.047-.359 4.632-.038 1.584.321 3.131.947 4.64 1.879.873.54 1.627 1.095 2.262 1.666s1.168 1.106 1.6 1.606.771.95 1.018 1.349.418.697.517.896l-3.658 2.923c-.427-.729-.988-1.475-1.685-2.234-.697-.76-1.581-1.47-2.652-2.132-.715-.442-1.488-.755-2.32-.94s-1.674-.177-2.525.024-1.693.62-2.525 1.257c-.833.638-1.617 1.552-2.353 2.742-.589.953-1.034 1.906-1.334 2.858-.301.953-.402 1.87-.303 2.754.098.884.417 1.732.957 2.546.54.813 1.346 1.552 2.417 2.214.674.417 1.305.752 1.89 1.004s1.12.452 1.604.6c.484.149.928.252 1.332.309.403.058.771.106 1.103.146l-1.02 4.514c-.9-.008-2.044-.221-3.431-.64-1.389-.42-2.867-1.113-4.435-2.082z"/></g></svg>