<?xml version="1.0" encoding="UTF-8" standalone="no"?>
<!-- Generator: Adobe Illustrator 15.0.0, SVG Export Plug-In . SVG Version: 6.00 Build 0)  -->

<svg
   version="1.1"
   id="CashTokens"
   x="0px"
   y="0px"
   width="360px"
   height="360px"
   viewBox="0 0 360 360"
   enable-background="new 0 0 360 360"
   xml:space="preserve"
   xmlns="http://www.w3.org/2000/svg"
   xmlns:svg="http://www.w3.org/2000/svg"><defs
   id="defs30">
	
	
</defs>
<circle
   id="purple"
   fill="#201447"
   cx="180"
   cy="180.001"
   r="176.4"
   style="fill:#222" />
<g
   id="barcode"
   style="fill:#fff">
	<path
   fill="#D1CED9"
   d="M75.251,274.833l-19.326,17.542c1.895,2.09,3.841,4.133,5.837,6.125l18.456-18.455   C78.519,278.35,76.863,276.612,75.251,274.833z"
   id="path1"
   style="fill:#fff" />
	<path
   fill="#D1CED9"
   d="M65.015,262.135c-1.127-1.575-2.218-3.177-3.28-4.798L39.967,271.74c1.229,1.874,2.49,3.725,3.792,5.545   L65.015,262.135z"
   id="path2"
   style="fill:#fff" />
	<path
   fill="#D1CED9"
   d="M30.336,255.05l23.354-11.661c-1.752-3.484-3.364-7.05-4.829-10.691l-24.2,9.789   C26.385,246.766,28.279,250.956,30.336,255.05z"
   id="path3"
   style="fill:#fff" />
	<path
   fill="#D1CED9"
   d="M19.793,228.666l24.985-7.566c-0.572-1.886-1.113-3.784-1.608-5.702l-25.267,6.567   C18.485,224.218,19.121,226.45,19.793,228.666z"
   id="path4"
   style="fill:#fff" />
	<path
   fill="#D1CED9"
   d="M15.172,209.383l25.702-4.56c-0.337-1.906-0.63-3.828-0.891-5.76l-25.858,3.552   C14.432,204.885,14.775,207.143,15.172,209.383z"
   id="path5"
   style="fill:#fff" />
	<path
   fill="#D1CED9"
   d="M13.414,196.563l25.977-2.54c-0.377-3.824-0.596-7.694-0.661-11.602l-26.094,0.508   C12.715,187.521,12.973,192.069,13.414,196.563z"
   id="path6"
   style="fill:#fff" />
	<path
   fill="#D1CED9"
   d="M15.53,148.717l25.638,4.902c0.368-1.946,0.768-3.881,1.215-5.798l-25.426-5.918   C16.433,144.156,15.963,146.43,15.53,148.717z"
   id="path7"
   style="fill:#fff" />
	<path
   fill="#D1CED9"
   d="M18.386,136.255l25.171,6.917c2.039-7.57,4.686-14.89,7.894-21.9l-23.789-10.753   C23.897,118.76,20.788,127.361,18.386,136.255z"
   id="path8"
   style="fill:#fff" />
	<path
   fill="#D1CED9"
   d="M33.21,99.48l22.875,12.575c0.94-1.711,1.912-3.402,2.92-5.07L36.643,93.522   C35.458,95.482,34.315,97.47,33.21,99.48z"
   id="path9"
   style="fill:#fff" />
	<path
   fill="#D1CED9"
   d="M48.862,75.957l20.431,16.24c1.229-1.547,2.484-3.07,3.775-4.564l-19.77-17.04   C51.782,72.348,50.306,74.139,48.862,75.957z"
   id="path10"
   style="fill:#fff" />
	<path
   fill="#D1CED9"
   d="M80.348,79.83c2.751-2.737,5.619-5.357,8.586-7.861L72.07,52.051c-3.487,2.944-6.855,6.022-10.09,9.238   L80.348,79.83z"
   id="path11"
   style="fill:#fff" />
	<path
   fill="#D1CED9"
   d="M106.473,59.318c1.672-1.021,3.37-2.002,5.087-2.955L98.893,33.54c-2.018,1.12-4.013,2.273-5.978,3.472   L106.473,59.318z"
   id="path12"
   style="fill:#fff" />
	<path
   fill="#D1CED9"
   d="M122.6,50.854c3.583-1.595,7.245-3.043,10.978-4.341l-8.631-24.637c-4.374,1.522-8.666,3.22-12.865,5.086   L122.6,50.854z"
   id="path13"
   style="fill:#fff" />
	<path
   fill="#D1CED9"
   d="M138.141,45.006c5.514-1.708,11.172-3.087,16.951-4.115l-4.689-25.681   c-6.791,1.211-13.438,2.835-19.919,4.839L138.141,45.006z"
   id="path14"
   style="fill:#fff" />
	<path
   fill="#D1CED9"
   d="M170.935,38.998c1.947-0.123,3.902-0.213,5.869-0.257l-0.562-26.093c-2.332,0.052-4.649,0.158-6.957,0.304   L170.935,38.998z"
   id="path15"
   style="fill:#fff" />
	<path
   fill="#D1CED9"
   d="M189.229,39.009c1.977,0.127,3.943,0.291,5.896,0.499l2.769-25.954c-2.296-0.244-4.606-0.436-6.929-0.586   L189.229,39.009z"
   id="path16"
   style="fill:#fff" />
	<path
   fill="#D1CED9"
   d="M210.776,42.072c7.65,1.699,15.065,4.019,22.192,6.902l9.688-24.241c-8.378-3.384-17.092-6.11-26.079-8.113   L210.776,42.072z"
   id="path17"
   style="fill:#fff" />
	<path
   fill="#D1CED9"
   d="M237.414,50.861c1.795,0.799,3.567,1.636,5.321,2.507L254.3,29.966c-2.062-1.023-4.146-2.008-6.254-2.947   L237.414,50.861z"
   id="path18"
   style="fill:#fff" />
	<path
   fill="#D1CED9"
   d="M253.59,59.357c3.342,2.043,6.589,4.226,9.74,6.531l15.348-21.111c-3.705-2.708-7.521-5.272-11.447-7.674   L253.59,59.357z"
   id="path19"
   style="fill:#fff" />
	<path
   fill="#D1CED9"
   d="M283.759,84.097l19.193-17.684c-1.545-1.672-3.118-3.319-4.73-4.927l-18.448,18.462   C281.131,81.303,282.456,82.689,283.759,84.097z"
   id="path20"
   style="fill:#fff" />
	<path
   fill="#D1CED9"
   d="M311.29,76.146L290.806,92.32c1.217,1.536,2.399,3.1,3.553,4.687l21.106-15.353   C314.108,79.79,312.72,77.951,311.29,76.146z"
   id="path21"
   style="fill:#fff" />
	<path
   fill="#D1CED9"
   d="M323.65,94.019l-22.408,13.385c1.022,1.705,2.016,3.428,2.967,5.178l22.929-12.479   C326.019,98.047,324.852,96.021,323.65,94.019z"
   id="path22"
   style="fill:#fff" />
	<path
   fill="#D1CED9"
   d="M329.951,105.531l-23.399,11.571c1.73,3.475,3.327,7.028,4.772,10.658l24.234-9.704   C333.858,113.791,331.983,109.615,329.951,105.531z"
   id="path23"
   style="fill:#fff" />
	<path
   fill="#D1CED9"
   d="M339.778,129.925l-24.918,7.787c0.578,1.845,1.112,3.709,1.616,5.586l25.2-6.808   C341.085,134.284,340.457,132.094,339.778,129.925z"
   id="path24"
   style="fill:#fff" />
	<path
   fill="#D1CED9"
   d="M347.347,184.238c0.035-1.408,0.054-2.82,0.054-4.237c0-3.215-0.1-6.407-0.279-9.577l-26.059,1.447   c0.152,2.691,0.238,5.4,0.238,8.13c0,1.212-0.016,2.42-0.046,3.625L347.347,184.238z"
   id="path25"
   style="fill:#fff" />
	<path
   fill="#D1CED9"
   d="M344.758,209.778l-25.683-4.668c-0.352,1.96-0.751,3.903-1.183,5.834l25.51,5.535   C343.896,214.261,344.354,212.029,344.758,209.778z"
   id="path26"
   style="fill:#fff" />
	<path
   fill="#D1CED9"
   d="M341.938,222.547l-25.241-6.658c-0.495,1.892-1.028,3.769-1.599,5.628l24.961,7.644   C340.729,226.976,341.355,224.771,341.938,222.547z"
   id="path27"
   style="fill:#fff" />
	<path
   fill="#D1CED9"
   d="M332.458,249.224l-23.76-10.815c-0.818,1.801-1.677,3.58-2.567,5.34l23.31,11.75   C330.487,253.431,331.495,251.34,332.458,249.224z"
   id="path28"
   style="fill:#fff" />
	<path
   fill="#D1CED9"
   d="M326.712,260.66L303.885,248c-3.758,6.833-8.062,13.323-12.857,19.407l20.575,16.06   C317.234,276.313,322.29,268.686,326.712,260.66z"
   id="path29"
   style="fill:#fff" />
	<path
   fill="#D1CED9"
   d="M284.375,275.243c-1.49,1.632-3.018,3.23-4.582,4.791l18.456,18.455c1.837-1.834,3.631-3.712,5.382-5.629   L284.375,275.243z"
   id="path30"
   style="fill:#fff" />
</g>
<circle
   id="green"
   fill="#0ac18e"
   cx="180"
   cy="180.00101"
   r="132.299"
   style="fill:#fff" /><path
   id="symbol_12_"
   fill="#ffffff"
   d="m 221.268,135.577 c -6.647,-15.076 -21.926,-18.301 -40.629,-15.178 l -6.011,-23.302 -14.169,3.659 5.91,23.238 c -3.729,0.94 -7.557,1.745 -11.35,2.821 l -5.911,-23.103 -14.17,3.661 6.012,23.303 c -3.056,0.872 -28.608,7.42 -28.608,7.42 l 3.895,15.178 c 0,0 10.409,-2.921 10.309,-2.687 5.775,-1.511 8.495,1.377 9.771,4.097 l 16.521,63.866 c 0.202,1.848 -0.134,5.004 -4.095,6.078 0.234,0.134 -10.309,2.652 -10.309,2.652 l 1.544,17.697 c 0,0 25.318,-6.482 28.641,-7.321 l 6.079,23.572 14.17,-3.659 -6.078,-23.74 c 3.896,-0.907 7.69,-1.848 11.383,-2.821 l 6.045,23.605 14.17,-3.66 -6.078,-23.538 c 21.826,-5.307 37.238,-19.074 34.082,-40.127 -2.015,-12.692 -15.881,-23.101 -27.4,-24.277 7.08,-6.28 10.675,-15.448 6.276,-27.434 z m -6.816,55.572 c 2.82,20.853 -26.159,23.404 -35.729,25.922 l -8.327,-31.194 c 9.604,-2.518 39.287,-13.095 44.056,5.272 z m -17.461,-42.476 c 2.987,18.536 -21.793,20.684 -29.784,22.731 l -7.59,-28.306 c 8.027,-1.981 31.296,-11.584 37.374,5.575 z"
   style="fill:#222" />
<g
   id="text"
   style="fill:#fff">
	<path
   id="s_1_"
   fill="#FFFFFF"
   d="M267.859,318.099c0.804-0.518,1.322-0.962,1.555-1.334s0.204-0.783-0.087-1.234   c-0.228-0.354-0.643-0.523-1.244-0.511c-0.603,0.014-1.452,0.138-2.55,0.373c-0.851,0.188-1.645,0.323-2.38,0.408   c-0.736,0.086-1.424,0.063-2.063-0.066s-1.236-0.39-1.793-0.78c-0.558-0.391-1.075-0.959-1.556-1.705   c-0.935-1.451-1.135-2.946-0.599-4.484c0.535-1.538,1.745-2.915,3.628-4.127c0.941-0.606,1.897-1.104,2.868-1.494   c0.971-0.389,1.774-0.649,2.41-0.782l1.434,3.906c-0.624,0.152-1.279,0.352-1.966,0.6s-1.403,0.612-2.148,1.092   c-1.373,0.885-1.813,1.709-1.32,2.475c0.113,0.176,0.244,0.314,0.392,0.414c0.147,0.099,0.351,0.155,0.608,0.169   c0.259,0.015,0.588-0.002,0.987-0.05c0.4-0.048,0.893-0.134,1.478-0.26c1.19-0.263,2.211-0.423,3.063-0.481   c0.851-0.058,1.586-0.003,2.207,0.164c0.622,0.168,1.164,0.449,1.626,0.843c0.462,0.395,0.901,0.915,1.317,1.561   c0.983,1.527,1.153,3.052,0.51,4.574c-0.644,1.521-2.015,2.958-4.113,4.311c-1.374,0.884-2.592,1.502-3.656,1.854   c-1.063,0.352-1.822,0.563-2.276,0.634l-1.558-4.034c0.935-0.186,1.849-0.448,2.74-0.787   C266.266,319.008,267.094,318.592,267.859,318.099z"
   style="fill:#fff" />
	<path
   id="n"
   fill="#FFFFFF"
   d="M238.328,318.055c0.685-0.619,1.608-1.334,2.771-2.146c1.161-0.813,2.435-1.556,3.819-2.229   c1.405-0.684,2.665-1.069,3.777-1.157c1.111-0.087,2.104,0.072,2.977,0.478c0.872,0.406,1.648,1.015,2.328,1.825   c0.681,0.812,1.296,1.783,1.848,2.916l4.55,9.347l-4.689,2.282l-4.273-8.78c-0.735-1.511-1.456-2.483-2.16-2.919   c-0.705-0.436-1.604-0.388-2.694,0.144c-0.336,0.163-0.685,0.353-1.047,0.568c-0.362,0.215-0.68,0.415-0.953,0.6l6.219,12.777   l-4.688,2.282L238.328,318.055z"
   style="fill:#fff" />
	<path
   id="e"
   fill="#FFFFFF"
   d="M221.923,332.976c-0.517-1.549-0.731-2.984-0.643-4.306c0.088-1.32,0.391-2.497,0.907-3.53   c0.516-1.033,1.211-1.917,2.086-2.651c0.874-0.734,1.843-1.278,2.905-1.633c2.479-0.826,4.69-0.722,6.635,0.314   c1.944,1.037,3.408,3.027,4.39,5.971c0.096,0.288,0.189,0.607,0.282,0.958c0.092,0.351,0.171,0.662,0.238,0.935l-11.223,3.742   c0.45,0.981,1.195,1.631,2.235,1.948c1.041,0.317,2.27,0.239,3.686-0.233c0.908-0.303,1.771-0.683,2.59-1.14   c0.819-0.458,1.465-0.9,1.938-1.329l2.003,3.797c-0.221,0.221-0.531,0.472-0.93,0.752c-0.398,0.281-0.852,0.562-1.361,0.842   c-0.509,0.28-1.063,0.558-1.659,0.83c-0.599,0.273-1.207,0.513-1.826,0.72c-1.572,0.524-3.017,0.747-4.333,0.67   c-1.317-0.077-2.492-0.393-3.525-0.945c-1.033-0.554-1.917-1.322-2.651-2.308S222.351,334.26,221.923,332.976z M232.912,327.208   c-0.162-0.413-0.371-0.799-0.625-1.156c-0.255-0.358-0.562-0.649-0.919-0.875c-0.358-0.225-0.765-0.372-1.218-0.442   c-0.454-0.07-0.969-0.009-1.544,0.183c-0.554,0.185-0.998,0.438-1.333,0.759c-0.336,0.321-0.585,0.681-0.747,1.079   s-0.247,0.826-0.255,1.284s0.026,0.907,0.1,1.35L232.912,327.208z"
   style="fill:#fff" />
	<path
   id="k"
   fill="#FFFFFF"
   d="M208.688,332.985c0.393-0.647,0.796-1.321,1.214-2.021c0.416-0.699,0.817-1.391,1.202-2.072   c0.386-0.682,0.747-1.329,1.087-1.942c0.339-0.612,0.63-1.145,0.871-1.597l6.077-1.232c-0.93,1.639-1.844,3.207-2.741,4.708   c-0.898,1.5-1.896,3.063-2.995,4.688c0.812,0.479,1.67,1.074,2.576,1.784c0.905,0.711,1.795,1.455,2.666,2.232   c0.872,0.777,1.687,1.565,2.444,2.366c0.757,0.8,1.407,1.539,1.949,2.216l-5.877,1.191c-0.486-0.521-1.036-1.096-1.65-1.724   c-0.614-0.627-1.257-1.248-1.929-1.863s-1.365-1.197-2.082-1.743c-0.717-0.547-1.408-0.992-2.071-1.335l1.604,7.908l-5.11,1.036   l-5.231-25.795l4.944-1.859L208.688,332.985z"
   style="fill:#fff" />
	<path
   id="o"
   fill="#FFFFFF"
   d="M199.98,337.171c0.099,1.443-0.021,2.778-0.358,4.006c-0.337,1.229-0.873,2.294-1.605,3.197   c-0.733,0.904-1.637,1.626-2.711,2.167c-1.074,0.541-2.298,0.859-3.671,0.953c-1.35,0.092-2.594-0.057-3.731-0.447   c-1.138-0.39-2.131-0.982-2.98-1.778c-0.85-0.795-1.537-1.777-2.061-2.946c-0.524-1.168-0.835-2.474-0.934-3.918   c-0.099-1.442,0.038-2.773,0.411-3.992c0.373-1.218,0.932-2.273,1.678-3.167c0.746-0.893,1.656-1.609,2.73-2.15   c1.074-0.541,2.262-0.856,3.566-0.945c1.327-0.091,2.559,0.059,3.697,0.448c1.137,0.391,2.13,0.978,2.979,1.761   c0.848,0.784,1.535,1.755,2.058,2.912S199.882,335.728,199.98,337.171z M194.672,337.533c-0.11-1.606-0.516-2.847-1.219-3.723   s-1.648-1.273-2.835-1.192c-1.187,0.081-2.076,0.604-2.664,1.568c-0.589,0.964-0.829,2.249-0.719,3.855s0.522,2.858,1.239,3.757   c0.716,0.898,1.668,1.307,2.855,1.226c1.187-0.081,2.068-0.615,2.645-1.602C194.549,340.437,194.782,339.14,194.672,337.533z"
   style="fill:#fff" />
	<path
   id="T"
   fill="#FFFFFF"
   d="M182.977,323.461l-0.225,4.65l-7.306-0.354l-0.948,19.577l-5.454-0.264l0.948-19.577l-7.307-0.354   l0.225-4.649L182.977,323.461z"
   style="fill:#fff" />
	<path
   id="h"
   fill="#FFFFFF"
   d="M141.82,343.217l4.758-25.887l5.281,0.116l-1.594,8.675c0.365-0.051,0.827-0.079,1.385-0.083   c0.558-0.005,1.09,0.04,1.595,0.133c1.468,0.27,2.653,0.695,3.556,1.276c0.901,0.581,1.577,1.292,2.027,2.134   s0.703,1.79,0.758,2.844c0.056,1.055-0.031,2.201-0.258,3.44l-1.879,10.224l-5.129-0.943l1.765-9.604   c0.304-1.652,0.307-2.862,0.009-3.628c-0.298-0.767-1.021-1.256-2.168-1.467c-0.459-0.084-0.897-0.123-1.313-0.116   c-0.417,0.007-0.794,0.026-1.132,0.059l-2.531,13.77L141.82,343.217z"
   style="fill:#fff" />
	<path
   id="s"
   fill="#FFFFFF"
   d="M130.614,336.075c0.914,0.283,1.587,0.396,2.022,0.335c0.434-0.061,0.73-0.347,0.89-0.859   c0.125-0.4-0.012-0.828-0.408-1.281c-0.397-0.453-1.038-1.024-1.922-1.716c-0.69-0.532-1.304-1.053-1.841-1.563   c-0.538-0.509-0.962-1.051-1.273-1.624s-0.495-1.198-0.553-1.876s0.045-1.439,0.308-2.287c0.513-1.648,1.531-2.761,3.055-3.338   c1.523-0.577,3.354-0.533,5.493,0.133c1.07,0.332,2.064,0.746,2.986,1.24c0.921,0.494,1.637,0.943,2.147,1.346l-2.075,3.606   c-0.518-0.381-1.091-0.755-1.722-1.122c-0.631-0.367-1.37-0.683-2.216-0.946c-1.56-0.484-2.475-0.293-2.745,0.576   c-0.063,0.2-0.084,0.39-0.066,0.565c0.018,0.178,0.105,0.369,0.261,0.576c0.155,0.208,0.379,0.449,0.672,0.725   c0.293,0.276,0.675,0.599,1.147,0.967c0.965,0.744,1.744,1.424,2.335,2.038c0.59,0.615,1.021,1.214,1.292,1.798   c0.27,0.584,0.402,1.181,0.397,1.788c-0.006,0.607-0.123,1.278-0.351,2.012c-0.54,1.734-1.599,2.843-3.179,3.327   c-1.58,0.483-3.562,0.354-5.946-0.387c-1.56-0.485-2.816-1.022-3.769-1.612c-0.953-0.59-1.603-1.035-1.948-1.339l2.093-3.784   c0.742,0.598,1.53,1.13,2.362,1.597C128.895,335.437,129.746,335.805,130.614,336.075z"
   style="fill:#fff" />
	<path
   id="a"
   fill="#FFFFFF"
   d="M119.339,315.592c1.408,0.624,2.51,1.304,3.307,2.04c0.796,0.735,1.345,1.528,1.646,2.376   c0.3,0.848,0.379,1.75,0.236,2.707c-0.144,0.958-0.447,1.959-0.91,3.004l-4.396,9.92c-0.75-0.153-1.776-0.397-3.082-0.734   c-1.306-0.336-2.823-0.887-4.55-1.653c-1.088-0.481-2.033-1.015-2.833-1.6c-0.8-0.584-1.423-1.236-1.87-1.958   c-0.446-0.72-0.684-1.509-0.713-2.364c-0.03-0.854,0.183-1.794,0.636-2.818c0.435-0.98,1-1.726,1.698-2.233   c0.697-0.508,1.466-0.817,2.307-0.93c0.84-0.112,1.728-0.07,2.662,0.127c0.933,0.196,1.859,0.498,2.776,0.904   c0.618,0.274,1.156,0.545,1.612,0.811c0.457,0.267,0.814,0.508,1.076,0.726l0.199-0.448c0.359-0.811,0.402-1.569,0.129-2.277   c-0.273-0.708-1.018-1.332-2.233-1.871c-0.811-0.359-1.637-0.654-2.478-0.888c-0.842-0.232-1.598-0.369-2.268-0.411l1.094-4.109   c0.314,0.038,0.702,0.101,1.16,0.188c0.458,0.089,0.949,0.204,1.474,0.347c0.523,0.144,1.069,0.309,1.637,0.496   C118.223,315.13,118.784,315.346,119.339,315.592z M113.54,329.714c0.469,0.207,0.921,0.396,1.358,0.563   c0.436,0.168,0.792,0.287,1.066,0.357l1.603-3.616c-0.173-0.127-0.442-0.297-0.807-0.511c-0.365-0.213-0.708-0.39-1.028-0.531   c-0.448-0.199-0.881-0.358-1.299-0.48c-0.418-0.122-0.81-0.174-1.174-0.157c-0.365,0.018-0.689,0.116-0.974,0.296   c-0.284,0.181-0.511,0.463-0.681,0.847c-0.331,0.747-0.31,1.375,0.064,1.886C112.041,328.877,112.665,329.325,113.54,329.714z"
   style="fill:#fff" />
	<path
   id="C"
   fill="#FFFFFF"
   d="M94.008,324.248c-3.354-2.073-5.333-4.585-5.937-7.537c-0.604-2.95,0.155-6.144,2.277-9.578   c1.055-1.707,2.265-3.064,3.628-4.073s2.797-1.687,4.301-2.033c1.503-0.347,3.047-0.359,4.632-0.038   c1.584,0.321,3.131,0.947,4.64,1.879c0.873,0.54,1.627,1.095,2.262,1.666c0.635,0.571,1.168,1.106,1.6,1.606   c0.432,0.5,0.771,0.95,1.018,1.349c0.247,0.399,0.418,0.697,0.517,0.896l-3.658,2.923c-0.427-0.729-0.988-1.475-1.685-2.234   c-0.697-0.76-1.581-1.47-2.652-2.132c-0.715-0.442-1.488-0.755-2.32-0.94s-1.674-0.177-2.525,0.024   c-0.851,0.201-1.693,0.62-2.525,1.257c-0.833,0.638-1.617,1.552-2.353,2.742c-0.589,0.953-1.034,1.906-1.334,2.858   c-0.301,0.953-0.402,1.87-0.303,2.754c0.098,0.884,0.417,1.732,0.957,2.546c0.54,0.813,1.346,1.552,2.417,2.214   c0.674,0.417,1.305,0.752,1.89,1.004s1.12,0.452,1.604,0.6c0.484,0.149,0.928,0.252,1.332,0.309   c0.403,0.058,0.771,0.106,1.103,0.146l-1.02,4.514c-0.9-0.008-2.044-0.221-3.431-0.64C97.054,325.91,95.576,325.217,94.008,324.248   z"
   style="fill:#fff" />
</g>
</svg>
