<?xml version="1.0" encoding="UTF-8" standalone="no"?>
<!-- Generator: Adobe Illustrator 23.0.3, SVG Export Plug-In . SVG Version: 6.00 Build 0)  -->

<svg
   version="1.1"
   id="Layer_1"
   x="0px"
   y="0px"
   viewBox="0 0 174.30001 174.3"
   xml:space="preserve"
   width="174.3"
   height="174.3"
   xmlns="http://www.w3.org/2000/svg"
   xmlns:svg="http://www.w3.org/2000/svg"><defs
   id="defs11" />
<style
   type="text/css"
   id="style1">
	.st0{fill:#333333;}
	.st1{fill:#22CC77;}
</style>

<path
   class="st1"
   d="M 154.44999,109.6 V 63.4 c 5.6,-1.9 9.7,-7.2 9.7,-13.4 0,-7.8 -6.3,-14.1 -14.1,-14.1 -3.7,0 -7.1,1.5 -9.7,3.9 l -39.4,-22.7 c 0.2,-1 0.3,-2 0.3,-3 C 101.24999,6.3 94.95,0 87.15,0 c -7.8,0 -14.2,6.3 -14.2,14.1 0,1 0.1,1.9 0.3,2.9 l -39.8,23 c -2.6,-2.5 -6.1,-4.1 -10,-4.1 -7.8,0 -14.1000001,6.3 -14.1000001,14.1 0,6.5 4.4000001,12 10.5000001,13.6 v 45.8 c -6,1.6 -10.5000001,7.1 -10.5000001,13.6 0,7.8 6.3000001,14.1 14.1000001,14.1 3.7,0 7.1,-1.5 9.7,-3.9 l 40.3,23.3 c -0.3,1.2 -0.5,2.4 -0.5,3.7 0,7.8 6.3,14.1 14.1,14.1 7.8,0 14.19999,-6.2 14.19999,-14 0,-1.3 -0.2,-2.5 -0.5,-3.7 l 39.9,-23 c 2.5,2.2 5.8,3.6 9.4,3.6 7.8,0 14.1,-6.3 14.1,-14.1 0,-6.3 -4.1,-11.6 -9.7,-13.5 z m -7.1,19.7 c -2.3,-1 -4,-3.2 -4.1,-5.9 0,-0.1 0,-0.2 0,-0.3 0,0 0,-0.1 0,-0.1 0,-0.1 0,-0.2 0,-0.4 0.1,-2.2 1.3,-4.2 3.1,-5.3 0.1,-0.1 0.2,-0.2 0.4,-0.2 0.1,0 0.2,-0.1 0.3,-0.1 0.9,-0.5 2,-0.7 3.1,-0.7 1.5,0 2.9,0.5 4.1,1.4 0.1,0.1 0.3,0.2 0.4,0.3 1.4,1.2 2.3,3.1 2.3,5.1 0,3.7 -3,6.8 -6.8,6.8 -0.8,0 -1.5,-0.1 -2.2,-0.4 -0.3,-0.1 -0.4,-0.2 -0.6,-0.2 z M 87.15,167.1 c -3.6,0 -6.6,-2.9 -6.8,-6.5 0,-0.1 0,-0.2 0,-0.2 0,-0.1 0,-0.1 0,-0.2 0.1,-2.3 1.3,-4.3 3.1,-5.5 0.4,-0.2 0.7,-0.4 1.1,-0.6 0.2,-0.1 0.3,-0.1 0.5,-0.2 0.7,-0.2 1.4,-0.3 2.1,-0.3 0.7,0 1.4,0.1 2.1,0.3 0.2,0.1 0.3,0.1 0.5,0.2 0.4,0.2 0.8,0.4 1.1,0.6 1.8,1.2 3,3.2 3.1,5.5 0,0.1 0,0.1 0,0.2 0,0.1 0,0.2 0,0.2 -0.2,3.6 -3.2,6.5 -6.8,6.5 z m -61,-37.8 c -0.8,0.3 -1.7,0.5 -2.7,0.5 -3.7,0 -6.8,-3 -6.8,-6.8 0,-2.4 1.2,-4.5 3.1,-5.7 0.1,-0.1 0.2,-0.2 0.4,-0.2 1,-0.6 2.1,-0.9 3.3,-0.9 0.1,0 0.3,0 0.4,0 1.4,0.1 2.6,0.6 3.7,1.3 0.1,0.1 0.3,0.2 0.4,0.3 1.2,1.1 2.1,2.6 2.3,4.3 0,0.1 0,0.3 0,0.5 0,0.1 0,0.2 0,0.4 0,0.3 0,0.5 -0.1,0.8 -0.3,2.3 -1.7,4.2 -3.6,5.2 -0.1,0.1 -0.3,0.2 -0.4,0.3 z M 16.75,50 c 0,-3.7 3,-6.8 6.8,-6.8 1.1,0 2.1,0.3 3.1,0.7 0.1,0.1 0.3,0.1 0.4,0.2 1,0.6 1.9,1.5 2.5,2.6 0.5,1 0.8,2.1 0.8,3.3 0,0.3 0,0.5 -0.1,0.8 0,0.2 0,0.3 -0.1,0.5 -0.2,1.1 -0.7,2 -1.3,2.8 -0.3,0.4 -0.6,0.7 -0.9,1 -0.1,0.1 -0.2,0.2 -0.4,0.3 -1.1,0.9 -2.5,1.4 -4.1,1.4 -1.2,0 -2.3,-0.3 -3.3,-0.9 -0.1,-0.1 -0.3,-0.1 -0.4,-0.2 -1.8,-1.3 -3,-3.3 -3,-5.7 z M 87.15,7.3 c 3.3,0 6,2.4 6.6,5.5 0,0.2 0.1,0.3 0.1,0.5 0,0.3 0.1,0.5 0.1,0.8 0,2.5 -1.3,4.6 -3.3,5.8 -0.1,0.1 -0.3,0.1 -0.4,0.2 -0.8,0.4 -1.7,0.7 -2.7,0.7 -0.1,0 -0.2,0 -0.4,0 -1.1,0 -2.1,-0.3 -3.1,-0.7 -0.1,-0.1 -0.3,-0.1 -0.4,-0.2 -1.1,-0.7 -2,-1.6 -2.6,-2.8 -0.5,-0.9 -0.7,-2 -0.7,-3.1 0,-0.3 0,-0.5 0.1,-0.8 0,-0.2 0,-0.3 0.1,-0.5 0.5,-3 3.3,-5.4 6.6,-5.4 z m 60.19999,36.5 c 0.8,-0.3 1.7,-0.5 2.7,-0.5 3.7,0 6.8,3 6.8,6.8 0,2 -0.9,3.9 -2.3,5.1 -0.1,0.1 -0.2,0.2 -0.4,0.3 -1.1,0.9 -2.5,1.4 -4.1,1.4 -0.9,0 -1.8,-0.2 -2.7,-0.5 -0.2,-0.1 -0.4,-0.2 -0.7,-0.3 -0.1,-0.1 -0.3,-0.1 -0.4,-0.2 -1.6,-1.1 -2.8,-2.8 -3,-4.8 0,-0.1 0,-0.3 0,-0.5 0,-0.1 0,-0.2 0,-0.4 0,-1.2 0.3,-2.3 0.8,-3.3 0.7,-1.2 1.7,-2.2 2.9,-2.8 0.1,-0.2 0.3,-0.3 0.4,-0.3 z m -7.3,69.2 -39.3,-22.7 c 0.3,-1.2 0.5,-2.4 0.5,-3.6 0,-1.3 -0.2,-2.5 -0.5,-3.6 l 39.6,-22.8 c 1.7,1.6 3.7,2.7 6,3.4 v 45.8 c -2.4,0.6 -4.6,1.8 -6.3,3.5 z M 37.05,54.1 h 15.7 c 0.7,2.3 2,4.3 3.6,6 l -28.4,49.2 V 63.4 c 4.3,-1.4 7.7,-4.9 9.1,-9.3 z m 29.2,-10.9 c 3.7,0 6.8,3 6.8,6.8 0,1.6 -0.5,3 -1.4,4.1 -1.1,1.5 -2.8,2.5 -4.8,2.6 -0.2,0 -0.4,0 -0.6,0 -3.7,0 -6.8,-3 -6.8,-6.8 0,-1.2 0.3,-2.3 0.8,-3.3 1.1,-2 3.3,-3.4 5.8,-3.5 0.1,0.1 0.1,0.1 0.2,0.1 z m -3.5,20.5 c 1.1,0.3 2.3,0.4 3.5,0.4 6.4,0 11.8,-4.2 13.5,-10 h 56.49999 L 97.049998,76.7 C 94.45,74.2 90.95,72.6 87.05,72.6 c -7.8,0 -14.1,6.3 -14.1,14.1 0,1.3 0.2,2.5 0.5,3.6 l -39.2,22.6 z m 24.4,29.8 c -1.1,0 -2.1,-0.3 -3.1,-0.7 -0.2,-0.1 -0.4,-0.2 -0.6,-0.4 -1.8,-1.2 -3.1,-3.3 -3.1,-5.7 0,-0.1 0,-0.2 0,-0.4 0.2,-3.6 3.1,-6.4 6.7,-6.4 1.1,0 2.1,0.3 3.1,0.7 2.1,1.1 3.6,3.2 3.7,5.7 0,0.1 0,0.2 0,0.4 0,0.1 0,0.2 0,0.4 -0.2,3.6 -3.1,6.4 -6.7,6.4 z m -7.2,-46.8 c -0.6,-2.5 -1.9,-4.8 -3.6,-6.6 l 7.2,-12.4 c 1.2,0.3 2.4,0.5 3.6,0.5 3.9,0 7.4,-1.6 9.999998,-4.1 l 39.099992,22.6 z m -9.9,-10.3 c -1.2,-0.3 -2.5,-0.5 -3.8,-0.5 -6.7,0 -12.3,4.7 -13.7,10.9 h -14.6 l 39.1,-22.5 z m -32.8,83.4 39.9,-23.1 c 1.7,1.7 3.9,3 6.3,3.6 v 46.3 c -2.1,0.6 -4,1.6 -5.6,3 l -40.6,-23.3 c 0.2,-1 0.4,-2.1 0.4,-3.2 0,-1.2 -0.2,-2.3 -0.4,-3.3 z m 53.6,26.9 v -46.3 c 2.4,-0.7 4.6,-1.9 6.299998,-3.6 l 39.299992,22.7 c -0.3,1.2 -0.5,2.4 -0.5,3.6 0,1.3 0.2,2.5 0.5,3.6 L 96.55,149.8 c -1.7,-1.5 -3.6,-2.5 -5.7,-3.1 z"
   id="path11"
   style="fill:#222" />
</svg>
