<?xml version="1.0" encoding="UTF-8" standalone="no"?>
<!-- Generator: Adobe Illustrator 23.0.3, SVG Export Plug-In . SVG Version: 6.00 Build 0)  -->

<svg
   version="1.1"
   id="Layer_1"
   x="0px"
   y="0px"
   viewBox="0 0 617.6 198.5"
   style="enable-background:new 0 0 617.6 198.5;"
   xml:space="preserve"
   xmlns="http://www.w3.org/2000/svg"
   xmlns:svg="http://www.w3.org/2000/svg"><defs
   id="defs11" />
<style
   type="text/css"
   id="style1">
	.st0{fill:#333333;}
	.st1{fill:#22CC77;}
</style>
<g
   id="g11"
   style="fill:#000000">
	<g
   id="g6"
   style="fill:#000000">
		<path
   class="st0"
   d="M365.9,88.6c0.8-2.7,1.9-3.4,4.9-3.4h17.4l3.1-9.8c-6.5-1-15.5-1-23.9-1c-6.9,0-12.3,4-14.3,10.8L341,125.5    h13.9l6.2-20.5h18.6l2.8-9.4h-18.5L365.9,88.6z"
   id="path1"
   style="fill:#000000" />
		<path
   class="st0"
   d="M466.1,96.4l-8.2-3.8c-3.1-1.4-3.6-2.2-2.9-4.3c1-3.1,2.8-3.4,7-3.4c5.9,0,12.4,0.1,16.8,0.2l2.7-9    c-5.2-1.8-11.6-2.4-17.1-2.4c-13,0-19.9,2.7-23.1,14c-1.9,6.6-1,11.6,6.6,15.3l8.7,4.3c2.4,1.1,3.1,1.8,2.4,4    c-1,2.9-2.8,3.5-8.2,3.5c-2.1,0-7.9-0.1-16.7-0.4l-2.9,9.7c7.2,1.8,14.4,2.3,18.4,2.3c14.1,0,19.7-3,23-14.6    C474.7,104.4,473.7,100,466.1,96.4z"
   id="path2"
   style="fill:#000000" />
		<path
   class="st0"
   d="M532.1,73.7c-15.7,0-23.2,5.7-29.3,25.9c-6.1,20.7-1.2,27,15.5,27c15.6,0,23.4-5.3,29.5-25.9    C553.9,79.9,548.1,73.7,532.1,73.7z M533.4,99.6c-4.1,13.3-6.6,16.4-13.2,16.4c-6.3,0-7-2.9-3.2-15.3c4.2-13.3,6.6-16.4,13.1-16.4    C536.4,84.3,537.3,87.1,533.4,99.6z"
   id="path3"
   style="fill:#000000" />
		<path
   class="st0"
   d="M587.9,74.7c-0.5,0-0.6,0.7-0.1,0.8c2.8,0.7,5.1,1.2,4.4,4.1l-1.1,3.9l-4.9,16.5c-0.8,2.8-1.4,5.3-1.7,8.5    h-0.7c-0.3-3.4-0.8-6.2-1.5-8.5l-5.8-21c-0.8-2.6-1.4-4.3-4.3-4.3h-5.7c-3.1,0-4.9,1.4-5.8,4.6l-13.9,46.3h12.8l7.8-25.4    c0.9-3,1.4-5.8,1.8-8.8h0.7c0.1,2.8,0.5,5.8,1.1,8l5.8,21.9c0.8,2.7,1.5,4.3,4.3,4.3h5.7c3.2,0,4.9-1.4,5.8-4.6l13.9-46.3H587.9z"
   id="path4"
   style="fill:#000000" />
		<path
   class="st0"
   d="M485.1,74.7c-0.5,0-0.6,0.7-0.1,0.8c2.8,0.7,5.1,1.2,4.4,4.1l-0.5,1.7l-13.3,44.2h13.9l15.3-50.8H485.1z"
   id="path5"
   style="fill:#000000" />
		<path
   class="st0"
   d="M419.8,74.7c-0.5,0-0.6,0.7-0.1,0.8c2.8,0.7,5.1,1.2,4.4,4.1L424,80l-7.5,24.6c-2.7,8.7-4.9,11.3-11.2,11.3    c-6,0-6.8-2.4-4.2-10.8l9.2-30.4h-13.9l-9.1,29.9c-4.7,15.9,1.1,22,15.9,22c15.3,0,22-5.5,26.7-21.4l9.3-30.4H419.8z"
   id="path6"
   style="fill:#000000" />
	</g>
	<g
   id="g10"
   style="fill:#000000">
		<path
   class="st0"
   d="M180.9,100.3c4.9-16.5,9.7-20.8,19.7-20.8c5.7,0,8.5,0.2,12.8,0.7l1.8-4.9c-3.9-1.1-7-1.5-13.6-1.5    c-14.5,0-21.6,6.8-27.4,26.1c-5.6,18.6-2.3,26.5,12.3,26.5c6.5,0,10.6-0.4,15.2-1.6l0.4-4.9c-4.3,0.5-8.2,0.8-14.6,0.8    C177.8,120.6,176.2,115.7,180.9,100.3z"
   id="path7"
   style="fill:#000000" />
		<path
   class="st0"
   d="M283.1,98.9l-9.4-3.7c-4.3-1.7-5.3-2.9-3.8-8c2.3-7.7,5.9-7.7,12.6-7.6c5,0,9.5,0.1,14.5,0.4l1.4-4.7    c-4.7-1.1-9.9-1.4-14.8-1.5c-10.2,0-16.6,1.3-20,12.7c-2.1,7.1-0.7,11.5,6,14.1l9.5,3.8c4.3,1.7,5.3,2.9,3.8,8.1    c-2.1,7.1-5.3,8-13.7,8c-3.2,0.1-6.1-0.1-14.7-0.4l-1.6,4.8c6.6,1.3,12.2,1.4,15.2,1.4c12,0,17.7-2.1,21.1-13.2    C291.4,105.7,290.3,101.7,283.1,98.9z"
   id="path8"
   style="fill:#000000" />
		<path
   class="st0"
   d="M244.5,74.7h-15.9c-0.5,0-0.6,0.7-0.1,0.8c2.8,0.7,5.7,2,4.4,4.1l-29.1,45.9h6.9l9.8-15.8h20.9l0.3,15.8h6.5    l-1.7-48.9C246.5,75.5,245.7,74.7,244.5,74.7z M223.9,104l12.4-20c0.8-1.4,1.8-3,2.6-4.3h2.2c0,1.4-0.1,2.9-0.1,4.3l0.3,20H223.9z    "
   id="path9"
   style="fill:#000000" />
		<path
   class="st0"
   d="M334.2,74.7c-0.5,0-0.6,0.7-0.1,0.8c2.8,0.7,5.1,1.2,4.4,4.1l-0.1,0.3l-4.7,15.7h-23.4l6.3-20.9H310    l-15.3,50.8h6.6l7.3-24.3H332l-7.3,24.3h6.4l15.3-50.8H334.2z"
   id="path10"
   style="fill:#000000" />
	</g>
</g>
<path
   class="st1"
   d="M155.2,122.5V76.3c5.6-1.9,9.7-7.2,9.7-13.4c0-7.8-6.3-14.1-14.1-14.1c-3.7,0-7.1,1.5-9.7,3.9l-39.4-22.7  C101.9,29,102,28,102,27c0-7.8-6.3-14.1-14.1-14.1S73.7,19.2,73.7,27c0,1,0.1,1.9,0.3,2.9l-39.8,23c-2.6-2.5-6.1-4.1-10-4.1  c-7.8,0-14.1,6.3-14.1,14.1c0,6.5,4.4,12,10.5,13.6v45.8c-6,1.6-10.5,7.1-10.5,13.6c0,7.8,6.3,14.1,14.1,14.1c3.7,0,7.1-1.5,9.7-3.9  l40.3,23.3c-0.3,1.2-0.5,2.4-0.5,3.7c0,7.8,6.3,14.1,14.1,14.1S102,181,102,173.2c0-1.3-0.2-2.5-0.5-3.7l39.9-23  c2.5,2.2,5.8,3.6,9.4,3.6c7.8,0,14.1-6.3,14.1-14.1C164.9,129.7,160.8,124.4,155.2,122.5z M148.1,142.2c-2.3-1-4-3.2-4.1-5.9  c0-0.1,0-0.2,0-0.3c0,0,0-0.1,0-0.1c0-0.1,0-0.2,0-0.4c0.1-2.2,1.3-4.2,3.1-5.3c0.1-0.1,0.2-0.2,0.4-0.2c0.1,0,0.2-0.1,0.3-0.1  c0.9-0.5,2-0.7,3.1-0.7c1.5,0,2.9,0.5,4.1,1.4c0.1,0.1,0.3,0.2,0.4,0.3c1.4,1.2,2.3,3.1,2.3,5.1c0,3.7-3,6.8-6.8,6.8  c-0.8,0-1.5-0.1-2.2-0.4C148.4,142.3,148.3,142.2,148.1,142.2z M87.9,180c-3.6,0-6.6-2.9-6.8-6.5c0-0.1,0-0.2,0-0.2  c0-0.1,0-0.1,0-0.2c0.1-2.3,1.3-4.3,3.1-5.5c0.4-0.2,0.7-0.4,1.1-0.6c0.2-0.1,0.3-0.1,0.5-0.2c0.7-0.2,1.4-0.3,2.1-0.3  s1.4,0.1,2.1,0.3c0.2,0.1,0.3,0.1,0.5,0.2c0.4,0.2,0.8,0.4,1.1,0.6c1.8,1.2,3,3.2,3.1,5.5c0,0.1,0,0.1,0,0.2c0,0.1,0,0.2,0,0.2  C94.5,177.1,91.5,180,87.9,180z M26.9,142.2c-0.8,0.3-1.7,0.5-2.7,0.5c-3.7,0-6.8-3-6.8-6.8c0-2.4,1.2-4.5,3.1-5.7  c0.1-0.1,0.2-0.2,0.4-0.2c1-0.6,2.1-0.9,3.3-0.9c0.1,0,0.3,0,0.4,0c1.4,0.1,2.6,0.6,3.7,1.3c0.1,0.1,0.3,0.2,0.4,0.3  c1.2,1.1,2.1,2.6,2.3,4.3c0,0.1,0,0.3,0,0.5c0,0.1,0,0.2,0,0.4c0,0.3,0,0.5-0.1,0.8c-0.3,2.3-1.7,4.2-3.6,5.2  C27.2,142,27,142.1,26.9,142.2z M17.5,62.9c0-3.7,3-6.8,6.8-6.8c1.1,0,2.1,0.3,3.1,0.7c0.1,0.1,0.3,0.1,0.4,0.2  c1,0.6,1.9,1.5,2.5,2.6c0.5,1,0.8,2.1,0.8,3.3c0,0.3,0,0.5-0.1,0.8c0,0.2,0,0.3-0.1,0.5c-0.2,1.1-0.7,2-1.3,2.8  c-0.3,0.4-0.6,0.7-0.9,1c-0.1,0.1-0.2,0.2-0.4,0.3c-1.1,0.9-2.5,1.4-4.1,1.4c-1.2,0-2.3-0.3-3.3-0.9c-0.1-0.1-0.3-0.1-0.4-0.2  C18.7,67.3,17.5,65.3,17.5,62.9z M87.9,20.2c3.3,0,6,2.4,6.6,5.5c0,0.2,0.1,0.3,0.1,0.5c0,0.3,0.1,0.5,0.1,0.8  c0,2.5-1.3,4.6-3.3,5.8c-0.1,0.1-0.3,0.1-0.4,0.2c-0.8,0.4-1.7,0.7-2.7,0.7c-0.1,0-0.2,0-0.4,0c-1.1,0-2.1-0.3-3.1-0.7  c-0.1-0.1-0.3-0.1-0.4-0.2c-1.1-0.7-2-1.6-2.6-2.8c-0.5-0.9-0.7-2-0.7-3.1c0-0.3,0-0.5,0.1-0.8c0-0.2,0-0.3,0.1-0.5  C81.8,22.6,84.6,20.2,87.9,20.2z M148.1,56.7c0.8-0.3,1.7-0.5,2.7-0.5c3.7,0,6.8,3,6.8,6.8c0,2-0.9,3.9-2.3,5.1  c-0.1,0.1-0.2,0.2-0.4,0.3c-1.1,0.9-2.5,1.4-4.1,1.4c-0.9,0-1.8-0.2-2.7-0.5c-0.2-0.1-0.4-0.2-0.7-0.3c-0.1-0.1-0.3-0.1-0.4-0.2  c-1.6-1.1-2.8-2.8-3-4.8c0-0.1,0-0.3,0-0.5c0-0.1,0-0.2,0-0.4c0-1.2,0.3-2.3,0.8-3.3c0.7-1.2,1.7-2.2,2.9-2.8  C147.8,56.8,148,56.7,148.1,56.7z M140.8,125.9l-39.3-22.7c0.3-1.2,0.5-2.4,0.5-3.6c0-1.3-0.2-2.5-0.5-3.6l39.6-22.8  c1.7,1.6,3.7,2.7,6,3.4v45.8C144.7,123,142.5,124.2,140.8,125.9z M37.8,67h15.7c0.7,2.3,2,4.3,3.6,6l-28.4,49.2V76.3  C33,74.9,36.4,71.4,37.8,67z M67,56.1c3.7,0,6.8,3,6.8,6.8c0,1.6-0.5,3-1.4,4.1c-1.1,1.5-2.8,2.5-4.8,2.6c-0.2,0-0.4,0-0.6,0  c-3.7,0-6.8-3-6.8-6.8c0-1.2,0.3-2.3,0.8-3.3c1.1-2,3.3-3.4,5.8-3.5C66.9,56.1,66.9,56.1,67,56.1z M63.5,76.6  c1.1,0.3,2.3,0.4,3.5,0.4c6.4,0,11.8-4.2,13.5-10H137L97.8,89.6c-2.6-2.5-6.1-4.1-10-4.1c-7.8,0-14.1,6.3-14.1,14.1  c0,1.3,0.2,2.5,0.5,3.6l-39.2,22.6L63.5,76.6z M87.9,106.4c-1.1,0-2.1-0.3-3.1-0.7c-0.2-0.1-0.4-0.2-0.6-0.4  c-1.8-1.2-3.1-3.3-3.1-5.7c0-0.1,0-0.2,0-0.4c0.2-3.6,3.1-6.4,6.7-6.4c1.1,0,2.1,0.3,3.1,0.7c2.1,1.1,3.6,3.2,3.7,5.7  c0,0.1,0,0.2,0,0.4c0,0.1,0,0.2,0,0.4C94.4,103.6,91.5,106.4,87.9,106.4z M80.7,59.6c-0.6-2.5-1.9-4.8-3.6-6.6l7.2-12.4  c1.2,0.3,2.4,0.5,3.6,0.5c3.9,0,7.4-1.6,10-4.1L137,59.6H80.7z M70.8,49.3c-1.2-0.3-2.5-0.5-3.8-0.5c-6.7,0-12.3,4.7-13.7,10.9H38.7  l39.1-22.5L70.8,49.3z M38,132.7l39.9-23.1c1.7,1.7,3.9,3,6.3,3.6v46.3c-2.1,0.6-4,1.6-5.6,3L38,139.2c0.2-1,0.4-2.1,0.4-3.2  C38.4,134.8,38.2,133.7,38,132.7z M91.6,159.6v-46.3c2.4-0.7,4.6-1.9,6.3-3.6l39.3,22.7c-0.3,1.2-0.5,2.4-0.5,3.6  c0,1.3,0.2,2.5,0.5,3.6l-39.9,23.1C95.6,161.2,93.7,160.2,91.6,159.6z"
   id="path11"
   style="fill:#000000" />
</svg>
