<svg viewBox="0 0 360 360" xmlns="http://www.w3.org/2000/svg"><path d="m180 3.6c-97.4 0-176.4 79-176.4 176.4s79 176.4 176.4 176.4 176.4-79 176.4-176.4-79-176.4-176.4-176.4zm0 308.7c-73.1 0-132.3-59.2-132.3-132.3s59.2-132.3 132.3-132.3 132.3 59.2 132.3 132.3-59.2 132.3-132.3 132.3z" fill="#dee2e6"/><g fill="#0c0c0c"><path d="m75.3 274.8-19.3 17.5c1.9 2.1 3.8 4.1 5.8 6.1l18.5-18.5c-1.7-1.7-3.4-3.4-5-5.2z"/><path d="m65 262.1c-1.1-1.6-2.2-3.2-3.3-4.8l-21.8 14.4c1.2 1.9 2.5 3.7 3.8 5.5z"/><path d="m30.3 255.1 23.4-11.7c-1.8-3.5-3.4-7.1-4.8-10.7l-24.2 9.8c1.7 4.3 3.6 8.5 5.7 12.6z"/><path d="m19.8 228.7 25-7.6c-.6-1.9-1.1-3.8-1.6-5.7l-25.3 6.6c.6 2.3 1.2 4.5 1.9 6.7z"/><path d="m15.2 209.4 25.7-4.6c-.3-1.9-.6-3.8-.9-5.8l-25.9 3.6c.3 2.3.6 4.5 1 6.8z"/><path d="m13.4 196.6 26-2.5c-.4-3.8-.6-7.7-.7-11.6l-26.1.5c0 4.6.3 9.1.8 13.6z"/><path d="m15.5 148.7 25.6 4.9c.4-1.9.8-3.9 1.2-5.8l-25.4-5.9c-.5 2.3-1 4.5-1.4 6.8z"/><path d="m18.4 136.3 25.2 6.9c2-7.6 4.7-14.9 7.9-21.9l-23.8-10.8c-3.8 8.2-6.9 16.8-9.3 25.7z"/><path d="m33.2 99.5 22.9 12.6c.9-1.7 1.9-3.4 2.9-5.1l-22.4-13.5c-1.2 2-2.3 3.9-3.4 6z"/><path d="m48.9 76 20.4 16.2c1.2-1.5 2.5-3.1 3.8-4.6l-19.8-17c-1.5 1.8-3 3.5-4.4 5.4z"/><path d="m80.3 79.8c2.8-2.7 5.6-5.4 8.6-7.9l-16.9-19.9c-3.5 2.9-6.9 6-10.1 9.2l18.4 18.5z"/><path d="m106.5 59.3 5.1-3-12.7-22.8c-2 1.1-4 2.3-6 3.5z"/><path d="m122.6 50.9c3.6-1.6 7.2-3 11-4.3l-8.6-24.6c-4.4 1.5-8.7 3.2-12.9 5.1l10.5 23.9z"/><path d="m138.1 45c5.5-1.7 11.2-3.1 17-4.1l-4.7-25.7c-6.8 1.2-13.4 2.8-19.9 4.8l7.7 25z"/><path d="m170.9 39c1.9 0 3.9-.2 5.9-.3l-.6-26.1c-2.3 0-4.6.2-7 .3l1.6 26h.1z"/><path d="m189.2 39c2 0 3.9.3 5.9.5l2.8-26c-2.3-.2-4.6-.4-6.9-.6l-1.7 26h-.1z"/><path d="m210.8 42.1c7.6 1.7 15.1 4 22.2 6.9l9.7-24.2c-8.4-3.4-17.1-6.1-26.1-8.1l-5.8 25.5z"/><path d="m237.4 50.9c1.8.8 3.6 1.6 5.3 2.5l11.6-23.4c-2.1-1-4.1-2-6.3-2.9z"/><path d="m253.6 59.4c3.3 2 6.6 4.2 9.7 6.5l15.3-21.1c-3.7-2.7-7.5-5.3-11.4-7.7z"/><path d="m283.8 84.1 19.2-17.7c-1.5-1.7-3.1-3.3-4.7-4.9l-18.4 18.5c1.4 1.4 2.7 2.7 4 4.1z"/><path d="m311.3 76.1-20.5 16.2c1.2 1.5 2.4 3.1 3.6 4.7l21.1-15.4c-1.4-1.9-2.7-3.7-4.2-5.5z"/><path d="m323.6 94-22.4 13.4c1 1.7 2 3.4 3 5.2l22.9-12.5c-1.1-2.1-2.3-4.1-3.5-6.1z"/><path d="m330 105.5-23.4 11.6c1.7 3.5 3.3 7 4.8 10.7l24.2-9.7c-1.7-4.3-3.6-8.4-5.6-12.5z"/><path d="m339.8 129.9-24.9 7.8c.6 1.8 1.1 3.7 1.6 5.6l25.2-6.8c-.6-2.2-1.2-4.4-1.9-6.6z"/><path d="m347.3 184.2v-4.2c0-3.2-.1-6.4-.3-9.6l-26.1 1.4c.2 2.7.2 5.4.2 8.1v3.6l26.1.6z"/><path d="m344.8 209.8-25.7-4.7c-.4 2-.8 3.9-1.2 5.8l25.5 5.5c.5-2.2 1-4.4 1.4-6.7z"/><path d="m341.9 222.5-25.2-6.7c-.5 1.9-1 3.8-1.6 5.6l25 7.6c.7-2.2 1.3-4.4 1.9-6.6z"/><path d="m332.5 249.2-23.8-10.8c-.8 1.8-1.7 3.6-2.6 5.3l23.3 11.8c1-2.1 2.1-4.2 3-6.3z"/><path d="m326.7 260.7-22.8-12.7c-3.8 6.8-8.1 13.3-12.9 19.4l20.6 16.1c5.6-7.2 10.7-14.8 15.1-22.8z"/><path d="m284.4 275.2c-1.5 1.6-3 3.2-4.6 4.8l18.5 18.5c1.8-1.8 3.6-3.7 5.4-5.6l-19.3-17.6z"/></g><path d="m221.3 135.6c-6.6-15.1-21.9-18.3-40.6-15.2l-6-23.3-14.2 3.7 5.9 23.2c-3.7.9-7.6 1.7-11.4 2.8l-5.9-23.1-14.2 3.7 6 23.3c-3.1.9-28.6 7.4-28.6 7.4l3.9 15.2s10.4-2.9 10.3-2.7c5.8-1.5 8.5 1.4 9.8 4.1l16.5 63.9c.2 1.8-.1 5-4.1 6.1.2.1-10.3 2.7-10.3 2.7l1.5 17.7s25.3-6.5 28.6-7.3l6.1 23.6 14.2-3.7-6.1-23.7c3.9-.9 7.7-1.8 11.4-2.8l6 23.6 14.2-3.7-6.1-23.5c21.8-5.3 37.2-19.1 34.1-40.1-2-12.7-15.9-23.1-27.4-24.3 7.1-6.3 10.7-15.4 6.3-27.4v-.2zm-6.8 55.5c2.8 20.9-26.2 23.4-35.7 25.9l-8.3-31.2c9.6-2.5 39.3-13.1 44.1 5.3zm-17.5-42.4c3 18.5-21.8 20.7-29.8 22.7l-7.6-28.3c8-2 31.3-11.6 37.4 5.6z" fill="#dee2e6"/><path d="m267.9 318.1c.8-.5 1.3-1 1.6-1.3s.2-.8 0-1.2-.6-.5-1.2-.5-1.5.1-2.5.4c-.9.2-1.6.3-2.4.4h-2.1c-.7 0-1.2-.4-1.8-.8s-1.1-1-1.6-1.7c-.9-1.5-1.1-2.9-.6-4.5.5-1.5 1.7-2.9 3.6-4.1.9-.6 1.9-1.1 2.9-1.5s1.8-.6 2.4-.8l1.4 3.9c-.6.2-1.3.4-2 .6s-1.4.6-2.1 1.1c-1.4.9-1.8 1.7-1.3 2.5.1.2.2.3.4.4.1 0 .4.2.6.2h1c.4 0 .9-.1 1.5-.3 1.2-.3 2.2-.4 3.1-.5.9 0 1.6 0 2.2.2s1.2.4 1.6.8c.5.4.9.9 1.3 1.6 1 1.5 1.2 3.1.5 4.6-.6 1.5-2 3-4.1 4.3-1.4.9-2.6 1.5-3.7 1.9s-1.8.6-2.3.6l-1.6-4c.9-.2 1.8-.4 2.7-.8.9-.3 1.7-.8 2.5-1.2z" fill="#0c0c0c"/><path d="m238.3 318.1c.7-.6 1.6-1.3 2.8-2.1s2.4-1.6 3.8-2.2c1.4-.7 2.7-1.1 3.8-1.2 1.1 0 2.1 0 3 .5.9.4 1.6 1 2.3 1.8s1.3 1.8 1.8 2.9l4.6 9.3-4.7 2.3-4.3-8.8c-.7-1.5-1.5-2.5-2.2-2.9s-1.6-.4-2.7.1c-.3.2-.7.4-1 .6s-.7.4-1 .6l6.2 12.8-4.7 2.3-7.8-16z" fill="#0c0c0c"/><path d="m221.9 333c-.5-1.5-.7-3-.6-4.3 0-1.3.4-2.5.9-3.5s1.2-1.9 2.1-2.7c.9-.7 1.8-1.3 2.9-1.6 2.5-.8 4.7-.7 6.6.3s3.4 3 4.4 6c0 .3.2.6.3 1 0 .4.2.7.2.9l-11.2 3.7c.4 1 1.2 1.6 2.2 1.9s2.3.2 3.7-.2c.9-.3 1.8-.7 2.6-1.1.8-.5 1.5-.9 1.9-1.3l2 3.8c-.2.2-.5.5-.9.8s-.9.6-1.4.8c-.5.3-1.1.6-1.7.8-.6.3-1.2.5-1.8.7-1.6.5-3 .7-4.3.7s-2.5-.4-3.5-.9c-1-.6-1.9-1.3-2.7-2.3s-1.3-2.1-1.7-3.4zm11-5.8-.6-1.2c-.3-.4-.6-.6-.9-.9-.4-.2-.8-.4-1.2-.4s-1 0-1.5.2c-.6.2-1 .4-1.3.8-.3.3-.6.7-.7 1.1s-.2.8-.3 1.3 0 .9.1 1.4l6.5-2.2h-.1z" fill="#0c0c0c"/><path d="m208.7 333c.4-.6.8-1.3 1.2-2s.8-1.4 1.2-2.1.7-1.3 1.1-1.9c.3-.6.6-1.1.9-1.6l6.1-1.2c-.9 1.6-1.8 3.2-2.7 4.7s-1.9 3.1-3 4.7c.8.5 1.7 1.1 2.6 1.8s1.8 1.5 2.7 2.2c.9.8 1.7 1.6 2.4 2.4.8.8 1.4 1.5 1.9 2.2l-5.9 1.2c-.5-.5-1-1.1-1.6-1.7s-1.3-1.2-1.9-1.9-1.4-1.2-2.1-1.7-1.4-1-2.1-1.3l1.6 7.9-5.1 1-5.2-25.8 4.9-1.9 3.1 15.1z" fill="#0c0c0c"/><path d="m200 337.2c0 1.4 0 2.8-.4 4-.3 1.2-.9 2.3-1.6 3.2s-1.6 1.6-2.7 2.2-2.3.9-3.7 1c-1.4 0-2.6 0-3.7-.4s-2.1-1-3-1.8-1.5-1.8-2.1-2.9c-.5-1.2-.8-2.5-.9-3.9 0-1.4 0-2.8.4-4s.9-2.3 1.7-3.2c.7-.9 1.7-1.6 2.7-2.1 1.1-.5 2.3-.9 3.6-.9s2.6 0 3.7.4 2.1 1 3 1.8c.8.8 1.5 1.8 2.1 2.9s.8 2.5.9 3.9zm-5.3.3c-.1-1.6-.5-2.8-1.2-3.7s-1.6-1.3-2.8-1.2c-1.2 0-2.1.6-2.7 1.6s-.8 2.2-.7 3.9.5 2.9 1.2 3.8 1.7 1.3 2.9 1.2 2.1-.6 2.6-1.6c.6-1 .8-2.3.7-3.9z" fill="#0c0c0c"/><path d="m183 323.5-.2 4.6-7.3-.4-.9 19.6-5.5-.3.9-19.6-7.3-.4.2-4.6 20.1 1z" fill="#0c0c0c"/><path d="m141.8 343.2 4.8-25.9h5.3c0 .1-1.6 8.8-1.6 8.8h1.4c.6 0 1.1 0 1.6.1 1.5.3 2.7.7 3.6 1.3s1.6 1.3 2 2.1.7 1.8.8 2.8c0 1.1 0 2.2-.3 3.4l-1.9 10.2-5.1-.9 1.8-9.6c.3-1.7.3-2.9 0-3.6-.3-.8-1-1.3-2.2-1.5-.5 0-.9-.1-1.3-.1h-1.1l-2.5 13.8-5.1-.9z" fill="#0c0c0c"/><path d="m130.6 336.1c.9.3 1.6.4 2 .3.4 0 .7-.3.9-.9.1-.4 0-.8-.4-1.3s-1-1-1.9-1.7c-.7-.5-1.3-1.1-1.8-1.6s-1-1.1-1.3-1.6-.5-1.2-.6-1.9 0-1.4.3-2.3c.5-1.6 1.5-2.8 3.1-3.3 1.5-.6 3.4-.5 5.5.1 1.1.3 2.1.7 3 1.2s1.6.9 2.1 1.3l-2.1 3.6c-.5-.4-1.1-.8-1.7-1.1s-1.4-.7-2.2-.9c-1.6-.5-2.5-.3-2.7.6v.6c0 .2.1.4.3.6s.4.4.7.7.7.6 1.1 1c1 .7 1.7 1.4 2.3 2s1 1.2 1.3 1.8.4 1.2.4 1.8-.1 1.3-.4 2c-.5 1.7-1.6 2.8-3.2 3.3s-3.6.4-5.9-.4c-1.6-.5-2.8-1-3.8-1.6s-1.6-1-1.9-1.3l2.1-3.8c.7.6 1.5 1.1 2.4 1.6.8.5 1.7.8 2.6 1.1h-.2z" fill="#0c0c0c"/><path d="m119.3 315.6c1.4.6 2.5 1.3 3.3 2s1.3 1.5 1.6 2.4c.3.8.4 1.8.2 2.7 0 1-.4 2-.9 3l-4.4 9.9c-.8-.2-1.8-.4-3.1-.7s-2.8-.9-4.6-1.7c-1.1-.5-2-1-2.8-1.6s-1.4-1.2-1.9-2c-.4-.7-.7-1.5-.7-2.4s.2-1.8.6-2.8 1-1.7 1.7-2.2 1.5-.8 2.3-.9 1.7 0 2.7.1c.9.2 1.9.5 2.8.9.6.3 1.2.5 1.6.8.5.3.8.5 1.1.7l.2-.4c.4-.8.4-1.6 0-2.3s-1-1.3-2.2-1.9c-.8-.4-1.6-.7-2.5-.9-.8-.2-1.6-.4-2.3-.4l1.1-4.1c.3 0 .7.1 1.2.2.5 0 .9.2 1.5.3.5.1 1.1.3 1.6.5.6.2 1.1.4 1.7.6v.2zm-5.8 14.1c.5.2.9.4 1.4.6.4.2.8.3 1.1.4l1.6-3.6c-.2-.1-.4-.3-.8-.5s-.7-.4-1-.5c-.4-.2-.9-.4-1.3-.5s-.8-.2-1.2-.2-.7.1-1 .3-.5.5-.7.8c-.3.7-.3 1.4 0 1.9.4.5 1 1 1.9 1.3z" fill="#0c0c0c"/><path d="m94 324.2c-3.4-2.1-5.3-4.6-5.9-7.5-.6-3 .2-6.1 2.3-9.6 1.1-1.7 2.3-3.1 3.6-4.1s2.8-1.7 4.3-2 3-.4 4.6 0c1.6.3 3.1.9 4.6 1.9.9.5 1.6 1.1 2.3 1.7.6.6 1.2 1.1 1.6 1.6s.8 1 1 1.3c.2.4.4.7.5.9l-3.7 2.9c-.4-.7-1-1.5-1.7-2.2-.7-.8-1.6-1.5-2.7-2.1-.7-.4-1.5-.8-2.3-.9s-1.7-.2-2.5 0-1.7.6-2.5 1.3c-.8.6-1.6 1.6-2.4 2.7-.6 1-1 1.9-1.3 2.9s-.4 1.9-.3 2.8c0 .9.4 1.7 1 2.5.5.8 1.3 1.6 2.4 2.2.7.4 1.3.8 1.9 1s1.1.5 1.6.6.9.3 1.3.3.8.1 1.1.1l-1 4.5c-.9 0-2-.2-3.4-.6s-2.9-1.1-4.4-2.1z" fill="#0c0c0c"/></svg>