<?xml version="1.0" encoding="UTF-8"?>
<svg id="Layer_1" xmlns="http://www.w3.org/2000/svg" xmlns:svg="http://www.w3.org/2000/svg" version="1.1" viewBox="0 0 174.3 174.3">
  <!-- Generator: Adobe Illustrator 29.1.0, SVG Export Plug-In . SVG Version: 2.1.0 Build 142)  -->
  <defs>
    <style>
      .st0 {
        fill: #f8f9fa;
      }
    </style>
  </defs>
  <path id="path11" class="st0" d="M154.4,109.6v-46.2c5.6-1.9,9.7-7.2,9.7-13.4s-6.3-14.1-14.1-14.1-7.1,1.5-9.7,3.9l-39.4-22.7c.2-1,.3-2,.3-3,0-7.8-6.3-14.1-14.1-14.1s-14.2,6.3-14.2,14.1,0,1.9.3,2.9l-39.8,23c-2.6-2.5-6.1-4.1-10-4.1-7.8,0-14.1,6.3-14.1,14.1s4.4,12,10.5,13.6v45.8c-6,1.6-10.5,7.1-10.5,13.6s6.3,14.1,14.1,14.1,7.1-1.5,9.7-3.9l40.3,23.3c-.3,1.2-.5,2.4-.5,3.7,0,7.8,6.3,14.1,14.1,14.1s14.2-6.2,14.2-14-.2-2.5-.5-3.7l39.9-23c2.5,2.2,5.8,3.6,9.4,3.6,7.8,0,14.1-6.3,14.1-14.1s-4.1-11.6-9.7-13.5h0ZM147.3,129.3c-2.3-1-4-3.2-4.1-5.9v-.3h0v-.5c.1-2.2,1.3-4.2,3.1-5.3.1,0,.2-.2.4-.2h.3c.9-.5,2-.7,3.1-.7s2.9.5,4.1,1.4c.1,0,.3.2.4.3,1.4,1.2,2.3,3.1,2.3,5.1,0,3.7-3,6.8-6.8,6.8s-1.5-.1-2.2-.4c-.3-.1-.4-.2-.6-.2h0ZM87.2,167.1c-3.6,0-6.6-2.9-6.8-6.5v-.4c0-2.3,1.3-4.3,3.1-5.5.4-.2.7-.4,1.1-.6.2-.1.3-.1.5-.2.7-.2,1.4-.3,2.1-.3s1.4.1,2.1.3c.2.1.3.1.5.2.4.2.8.4,1.1.6,1.8,1.2,3,3.2,3.1,5.5v.4c-.2,3.6-3.2,6.5-6.8,6.5h0ZM26.2,129.3c-.8.3-1.7.5-2.7.5-3.7,0-6.8-3-6.8-6.8s1.2-4.5,3.1-5.7c.1,0,.2-.2.4-.2,1-.6,2.1-.9,3.3-.9h.4c1.4,0,2.6.6,3.7,1.3.1,0,.3.2.4.3,1.2,1.1,2.1,2.6,2.3,4.3v.9c0,.3,0,.5-.1.8-.3,2.3-1.7,4.2-3.6,5.2-.1.1-.3.2-.4.3h0ZM16.8,50c0-3.7,3-6.8,6.8-6.8s2.1.3,3.1.7c.1,0,.3,0,.4.2,1,.6,1.9,1.5,2.5,2.6.5,1,.8,2.1.8,3.3s0,.5-.1.8c0,.2,0,.3-.1.5-.2,1.1-.7,2-1.3,2.8-.3.4-.6.7-.9,1-.1,0-.2.2-.4.3-1.1.9-2.5,1.4-4.1,1.4s-2.3-.3-3.3-.9c-.1,0-.3,0-.4-.2-1.8-1.3-3-3.3-3-5.7ZM87.2,7.3c3.3,0,6,2.4,6.6,5.5v1.3c0,2.5-1.3,4.6-3.3,5.8,0,.1-.3.1-.4.2-.8.4-1.7.7-2.7.7h-.4c-1.1,0-2.1-.3-3.1-.7,0-.1-.3-.1-.4-.2-1.1-.7-2-1.6-2.6-2.8-.5-.9-.7-2-.7-3.1s0-.5,0-.8v-.5c.5-3,3.3-5.4,6.6-5.4,0,0,.4,0,.4,0ZM147.3,43.8c.8-.3,1.7-.5,2.7-.5,3.7,0,6.8,3,6.8,6.8s-.9,3.9-2.3,5.1c-.1,0-.2.2-.4.3-1.1.9-2.5,1.4-4.1,1.4s-1.8-.2-2.7-.5c-.2,0-.4-.2-.7-.3-.1,0-.3,0-.4-.2-1.6-1.1-2.8-2.8-3-4.8v-.9c0-1.2.3-2.3.8-3.3.7-1.2,1.7-2.2,2.9-2.8.1-.2.3-.3.4-.3ZM140,113l-39.3-22.7c.3-1.2.5-2.4.5-3.6s-.2-2.5-.5-3.6l39.6-22.8c1.7,1.6,3.7,2.7,6,3.4v45.8c-2.4.6-4.6,1.8-6.3,3.5h0ZM37,54.1h15.7c.7,2.3,2,4.3,3.6,6l-28.4,49.2v-45.9c4.3-1.4,7.7-4.9,9.1-9.3ZM66.2,43.2c3.7,0,6.8,3,6.8,6.8s-.5,3-1.4,4.1c-1.1,1.5-2.8,2.5-4.8,2.6h-.6c-3.7,0-6.8-3-6.8-6.8s.3-2.3.8-3.3c1.1-2,3.3-3.4,5.8-3.5h.2ZM62.8,63.7c1.1.3,2.3.4,3.5.4,6.4,0,11.8-4.2,13.5-10h56.5l-39.2,22.6c-2.6-2.5-6.1-4.1-10-4.1-7.8,0-14.1,6.3-14.1,14.1s.2,2.5.5,3.6l-39.2,22.6s28.5-49.2,28.5-49.2ZM87.2,93.5c-1.1,0-2.1-.3-3.1-.7-.2,0-.4-.2-.6-.4-1.8-1.2-3.1-3.3-3.1-5.7v-.4c.2-3.6,3.1-6.4,6.7-6.4s2.1.3,3.1.7c2.1,1.1,3.6,3.2,3.7,5.7v.8c-.2,3.6-3.1,6.4-6.7,6.4ZM80,46.7c-.6-2.5-1.9-4.8-3.6-6.6l7.2-12.4c1.2.3,2.4.5,3.6.5,3.9,0,7.4-1.6,10-4.1l39.1,22.6h-56.3,0ZM70.1,36.4c-1.2-.3-2.5-.5-3.8-.5-6.7,0-12.3,4.7-13.7,10.9h-14.6l39.1-22.5s-7,12.1-7,12.1ZM37.3,119.8l39.9-23.1c1.7,1.7,3.9,3,6.3,3.6v46.3c-2.1.6-4,1.6-5.6,3l-40.6-23.3c.2-1,.4-2.1.4-3.2s-.2-2.3-.4-3.3h0ZM90.9,146.7v-46.3c2.4-.7,4.6-1.9,6.3-3.6l39.3,22.7c-.3,1.2-.5,2.4-.5,3.6s.2,2.5.5,3.6l-39.9,23.1c-1.7-1.5-3.6-2.5-5.7-3.1Z"/>
</svg>