<svg height="174.3" viewBox="0 0 174.30001 174.3" width="174.3" xmlns="http://www.w3.org/2000/svg"><path d="m154.44999 109.6v-46.2c5.6-1.9 9.7-7.2 9.7-13.4 0-7.8-6.3-14.1-14.1-14.1-3.7 0-7.1 1.5-9.7 3.9l-39.4-22.7c.2-1 .3-2 .3-3 0-7.8-6.29999-14.1-14.09999-14.1s-14.2 6.3-14.2 14.1c0 1 .1 1.9.3 2.9l-39.8 23c-2.6-2.5-6.1-4.1-10-4.1-7.8 0-14.1000001 6.3-14.1000001 14.1 0 6.5 4.4000001 12 10.5000001 13.6v45.8c-6 1.6-10.5000001 7.1-10.5000001 13.6 0 7.8 6.3000001 14.1 14.1000001 14.1 3.7 0 7.1-1.5 9.7-3.9l40.3 23.3c-.3 1.2-.5 2.4-.5 3.7 0 7.8 6.3 14.1 14.1 14.1s14.19999-6.2 14.19999-14c0-1.3-.2-2.5-.5-3.7l39.9-23c2.5 2.2 5.8 3.6 9.4 3.6 7.8 0 14.1-6.3 14.1-14.1 0-6.3-4.1-11.6-9.7-13.5zm-7.1 19.7c-2.3-1-4-3.2-4.1-5.9 0-.1 0-.2 0-.3v-.1c0-.1 0-.2 0-.4.1-2.2 1.3-4.2 3.1-5.3.1-.1.2-.2.4-.2.1 0 .2-.1.3-.1.9-.5 2-.7 3.1-.7 1.5 0 2.9.5 4.1 1.4.1.1.3.2.4.3 1.4 1.2 2.3 3.1 2.3 5.1 0 3.7-3 6.8-6.8 6.8-.8 0-1.5-.1-2.2-.4-.3-.1-.4-.2-.6-.2zm-60.19999 37.8c-3.6 0-6.6-2.9-6.8-6.5 0-.1 0-.2 0-.2 0-.1 0-.1 0-.2.1-2.3 1.3-4.3 3.1-5.5.4-.2.7-.4 1.1-.6.2-.1.3-.1.5-.2.7-.2 1.4-.3 2.1-.3s1.4.1 2.1.3c.2.1.3.1.5.2.4.2.8.4 1.1.6 1.8 1.2 3 3.2 3.1 5.5v.2.2c-.2 3.6-3.2 6.5-6.8 6.5zm-61-37.8c-.8.3-1.7.5-2.7.5-3.7 0-6.8-3-6.8-6.8 0-2.4 1.2-4.5 3.1-5.7.1-.1.2-.2.4-.2 1-.6 2.1-.9 3.3-.9h.4c1.4.1 2.6.6 3.7 1.3.1.1.3.2.4.3 1.2 1.1 2.1 2.6 2.3 4.3v.5.4c0 .3 0 .5-.1.8-.3 2.3-1.7 4.2-3.6 5.2-.1.1-.3.2-.4.3zm-9.4-79.3c0-3.7 3-6.8 6.8-6.8 1.1 0 2.1.3 3.1.7.1.1.3.1.4.2 1 .6 1.9 1.5 2.5 2.6.5 1 .8 2.1.8 3.3 0 .3 0 .5-.1.8 0 .2 0 .3-.1.5-.2 1.1-.7 2-1.3 2.8-.3.4-.6.7-.9 1-.1.1-.2.2-.4.3-1.1.9-2.5 1.4-4.1 1.4-1.2 0-2.3-.3-3.3-.9-.1-.1-.3-.1-.4-.2-1.8-1.3-3-3.3-3-5.7zm70.4-42.7c3.3 0 6 2.4 6.6 5.5 0 .2.1.3.1.5 0 .3.1.5.1.8 0 2.5-1.3 4.6-3.3 5.8-.1.1-.3.1-.4.2-.8.4-1.7.7-2.7.7-.1 0-.2 0-.4 0-1.1 0-2.1-.3-3.1-.7-.1-.1-.3-.1-.4-.2-1.1-.7-2-1.6-2.6-2.8-.5-.9-.7-2-.7-3.1 0-.3 0-.5.1-.8 0-.2 0-.3.1-.5.5-3 3.3-5.4 6.6-5.4zm60.19999 36.5c.8-.3 1.7-.5 2.7-.5 3.7 0 6.8 3 6.8 6.8 0 2-.9 3.9-2.3 5.1-.1.1-.2.2-.4.3-1.1.9-2.5 1.4-4.1 1.4-.9 0-1.8-.2-2.7-.5-.2-.1-.4-.2-.7-.3-.1-.1-.3-.1-.4-.2-1.6-1.1-2.8-2.8-3-4.8 0-.1 0-.3 0-.5 0-.1 0-.2 0-.4 0-1.2.3-2.3.8-3.3.7-1.2 1.7-2.2 2.9-2.8.1-.2.3-.3.4-.3zm-7.3 69.2-39.3-22.7c.3-1.2.5-2.4.5-3.6 0-1.3-.2-2.5-.5-3.6l39.6-22.8c1.7 1.6 3.7 2.7 6 3.4v45.8c-2.4.6-4.6 1.8-6.3 3.5zm-102.99999-58.9h15.7c.7 2.3 2 4.3 3.6 6l-28.4 49.2v-45.9c4.3-1.4 7.7-4.9 9.1-9.3zm29.2-10.9c3.7 0 6.8 3 6.8 6.8 0 1.6-.5 3-1.4 4.1-1.1 1.5-2.8 2.5-4.8 2.6-.2 0-.4 0-.6 0-3.7 0-6.8-3-6.8-6.8 0-1.2.3-2.3.8-3.3 1.1-2 3.3-3.4 5.8-3.5.1.1.1.1.2.1zm-3.5 20.5c1.1.3 2.3.4 3.5.4 6.4 0 11.8-4.2 13.5-10h56.49999l-39.199992 22.6c-2.599998-2.5-6.099998-4.1-9.999998-4.1-7.8 0-14.1 6.3-14.1 14.1 0 1.3.2 2.5.5 3.6l-39.2 22.6zm24.4 29.8c-1.1 0-2.1-.3-3.1-.7-.2-.1-.4-.2-.6-.4-1.8-1.2-3.1-3.3-3.1-5.7 0-.1 0-.2 0-.4.2-3.6 3.1-6.4 6.7-6.4 1.1 0 2.1.3 3.1.7 2.1 1.1 3.6 3.2 3.7 5.7v.4.4c-.2 3.6-3.1 6.4-6.7 6.4zm-7.2-46.8c-.6-2.5-1.9-4.8-3.6-6.6l7.2-12.4c1.2.3 2.4.5 3.6.5 3.9 0 7.4-1.6 9.999998-4.1l39.099992 22.6zm-9.9-10.3c-1.2-.3-2.5-.5-3.8-.5-6.7 0-12.3 4.7-13.7 10.9h-14.6l39.1-22.5zm-32.8 83.4 39.9-23.1c1.7 1.7 3.9 3 6.3 3.6v46.3c-2.1.6-4 1.6-5.6 3l-40.6-23.3c.2-1 .4-2.1.4-3.2 0-1.2-.2-2.3-.4-3.3zm53.6 26.9v-46.3c2.4-.7 4.6-1.9 6.299998-3.6l39.299992 22.7c-.3 1.2-.5 2.4-.5 3.6 0 1.3.2 2.5.5 3.6l-39.89999 23.1c-1.7-1.5-3.6-2.5-5.7-3.1z" fill="#222"/></svg>