<?xml version="1.0" encoding="UTF-8"?>
<svg id="Layer_1" xmlns="http://www.w3.org/2000/svg" version="1.1" viewBox="0 0 370 370">
  <!-- Generator: Adobe Illustrator 29.1.0, SVG Export Plug-In . SVG Version: 2.1.0 Build 142)  -->
  <defs>
    <style>
      .st0 {
        fill: #4b72b8;
      }

      .st1 {
        fill: #272f3e;
      }

      .st2 {
        display: none;
      }

      .st3 {
        fill: #f05454;
      }
    </style>
  </defs>
  <g id="Layer_11" data-name="Layer_1">
    <path class="st3" d="M108.7,31.4l180.6,112.2-120,71.6v51.9l141.7-86.6s20.1-11.1,20.1-32.5-11-28.5-17.7-33.8S166.5,22.7,166.5,22.7c0,0-24.8-18.9-57.9,8.7"/>
    <path class="st0" d="M235.3,140l-66.1,44.1v-44.9l-87.8-48v201.1l26.4,15.7v-166.2l39,19.9v167.6s-1.5,15.7-13.4,21.3c-11.9,5.5-21.1,2.4-27.3-1.2-6.2-3.5-53.4-31.1-53.4-31.1,0,0-13.8-6.9-13.8-25.6V88.4s.8-20.9,16.1-32.3c15.3-11.4,34.6-7.5,39.4-4.7,4.8,2.8,140.9,88.6,140.9,88.6"/>
  </g>
  <g id="Layer_2" class="st2">
    <g>
      <path class="st1" d="M18.6,274.1v11.9h-2.2v-11.9l-11.3-18.1h2.4l10,16.1,10.1-16.1h2.4l-11.4,18.1Z"/>
      <path class="st1" d="M30.2,274.4c0-6.9,5.2-12,12.1-12s12.1,5.1,12.1,12-5.2,12-12.1,12-12.1-5.1-12.1-12ZM52.3,274.4c0-5.7-4.2-10-10-10s-10,4.2-10,10,4.3,10,10,10,10-4.3,10-10Z"/>
      <path class="st1" d="M60.1,276.1v-13.4h2.1v13.1c0,5.2,3,8.5,7.8,8.5s7.8-3.2,7.8-8.5v-13.1h2.1v13.4c0,6.2-3.8,10.2-9.9,10.2s-9.9-4-9.9-10.2Z"/>
      <path class="st1" d="M99.4,262.6v2h-2.2c-4.6,0-7.6,3.4-7.6,8.3v12.9h-2.1v-23.1h1.6l.4,4.6c1.5-2.9,4.2-4.6,7.9-4.6h2Z"/>
      <path class="st1" d="M147.8,271.2v14.7h-2.1v-14.1c0-4.6-2.4-7.6-6.2-7.6s-7.3,3.5-7.3,8.4v13.3h-2.1v-14.1c0-4.7-2.4-7.6-6.2-7.6s-7.3,3.5-7.3,8.4v13.3h-2.1v-23.1h1.6l.4,4.1c1.6-2.8,4.5-4.6,7.9-4.6s6.2,2.1,7.3,5.3c1.5-3.3,4.5-5.3,8.2-5.3,4.8,0,7.9,3.6,7.9,8.9Z"/>
      <path class="st1" d="M153.5,274.4c0-6.9,5.2-12,12.1-12s12.1,5.1,12.1,12-5.2,12-12.1,12-12.1-5.1-12.1-12ZM175.6,274.4c0-5.7-4.2-10-10-10s-10,4.2-10,10,4.3,10,10,10,10-4.3,10-10Z"/>
      <path class="st1" d="M203.6,272.1v13.7h-2.1v-13.3c0-5.3-2.7-8.4-7.4-8.4s-8.2,3.8-8.2,8.5v13.2h-2.1v-23.1h1.6l.4,4.7c1.7-3.1,5-5.2,8.8-5.2,5.5,0,9,4.1,9,9.9Z"/>
      <path class="st1" d="M232.4,275.1h-21c.3,5.4,4.3,9.2,9.6,9.2s6.8-1.9,8.6-5.2h2.2c-2.1,4.6-6,7.2-10.8,7.2s-11.7-5.2-11.7-12.1,5-12,11.7-12,11.5,5.3,11.5,12c-.1.4-.1.7-.1.9ZM211.4,273.1h18.9c-.5-5.3-4.4-8.8-9.4-8.8s-9,3.6-9.5,8.8Z"/>
      <path class="st1" d="M257.8,262.8l-11.6,24.8c-2.3,5-4.4,6.5-8.3,6.5h-1.8v-1.9h1.8c3.2,0,4.6-1,6.5-5.1l1.2-2.6-10.6-21.8h2.3l9.4,19.4,8.9-19.4h2.2Z"/>
      <path class="st1" d="M258.8,282.6h2.8v3.3h-2.8v-3.3Z"/>
      <path class="st1" d="M290,274.1v11.9h-2.2v-11.9l-11.3-18.1h2.4l10,16.1,10.1-16.1h2.4l-11.4,18.1Z"/>
      <path class="st1" d="M301.5,274.4c0-6.9,5.2-12,12.1-12s12.1,5.1,12.1,12-5.2,12-12.1,12-12.1-5.1-12.1-12ZM323.6,274.4c0-5.7-4.2-10-10-10s-10,4.2-10,10,4.3,10,10,10,10-4.3,10-10Z"/>
      <path class="st1" d="M331.5,276.1v-13.4h2.1v13.1c0,5.2,3,8.5,7.8,8.5s7.8-3.2,7.8-8.5v-13.1h2.1v13.4c0,6.2-3.8,10.2-9.9,10.2s-9.9-4-9.9-10.2Z"/>
      <path class="st1" d="M370.8,262.6v2h-2.2c-4.6,0-7.6,3.4-7.6,8.3v12.9h-2.1v-23.1h1.6l.4,4.6c1.5-2.9,4.2-4.6,7.9-4.6h2Z"/>
      <path class="st1" d="M395.8,286.4c-6.8,0-11.9-5.2-11.9-12s5.1-12,11.9-12,9.4,3,10.9,7.6h-2.1c-1.5-3.5-4.8-5.6-8.8-5.6s-9.8,4.3-9.8,10,4.2,10,9.8,10,7.2-2.1,8.8-5.7h2.1c-1.5,4.7-5.7,7.7-10.9,7.7h0Z"/>
      <path class="st1" d="M410.5,274.4c0-6.9,5.2-12,12.1-12s12.1,5.1,12.1,12-5.2,12-12.1,12-12.1-5.1-12.1-12ZM432.5,274.4c0-5.7-4.2-10-10-10s-10,4.2-10,10,4.3,10,10,10,10-4.3,10-10Z"/>
      <path class="st1" d="M460.6,272.1v13.7h-2.1v-13.3c0-5.3-2.7-8.4-7.4-8.4s-8.2,3.8-8.2,8.5v13.2h-2.1v-23.1h1.6l.4,4.7c1.7-3.1,5-5.2,8.8-5.2,5.5,0,9,4.1,9,9.9Z"/>
      <path class="st1" d="M479.1,284v2h-2.8c-4.5,0-7.3-2.8-7.3-7.4v-13.8h-3.9v-.5l5.5-5.5h.4v4.1h7.8v1.9h-7.8v13.8c0,3.5,1.9,5.5,5.4,5.5h2.7Z"/>
      <path class="st1" d="M496.3,262.6v2h-2.2c-4.6,0-7.6,3.4-7.6,8.3v12.9h-2.1v-23.1h1.6l.4,4.6c1.5-2.9,4.2-4.6,7.9-4.6h2Z"/>
      <path class="st1" d="M498,274.4c0-6.9,5.2-12,12.1-12s12.1,5.1,12.1,12-5.2,12-12.1,12-12.1-5.1-12.1-12ZM520,274.4c0-5.7-4.2-10-10-10s-10,4.2-10,10,4.3,10,10,10,10-4.3,10-10Z"/>
      <path class="st1" d="M528.2,254.6h2.1v31.3h-2.1v-31.3Z"/>
      <path class="st1" d="M537.2,282.6h2.8v3.3h-2.8v-3.3Z"/>
    </g>
    <path class="st3" d="M-152.7,108.6l103.8,64.5-69,41.2v29.9l81.4-49.8s11.5-6.4,11.5-18.7-6.3-16.4-10.2-19.4c-3.8-3-84.4-52.6-84.4-52.6,0,0-14.1-10.9-33.1,4.9"/>
    <path class="st0" d="M-79.9,171l-38,25.3v-25.8l-50.4-27.6v115.6l15.2,9v-95.6l22.4,11.4v96.4s-.9,9-7.7,12.2c-6.8,3.2-12.1,1.4-15.7-.7-3.6-2-30.7-17.9-30.7-17.9,0,0-7.9-4-7.9-14.7v-117.2s.5-12,9.3-18.5c8.8-6.6,19.9-4.3,22.6-2.7,2.7,1.5,80.9,50.8,80.9,50.8"/>
    <path class="st1" d="M503.1,202.5c-13.1,0-22.7-9.8-22.7-22.7s9.6-22.7,22.7-22.7,22.6,9.7,22.6,22.7c0,13-9.6,22.7-22.6,22.7M529,145.1l-1.7,8.7c-6.3-6.5-15.1-10.4-25.3-10.4-20.7,0-36.1,15.5-36.1,36.3s15.4,36.4,36.1,36.4,18.9-3.8,25.1-10.2l1.4,8.4h11.5v-69.3h-11ZM422.3,216.1c17.1,0,30.8-10.7,34.6-26.9h-14.4c-3.8,8.4-11.1,13.3-20.2,13.3s-21.8-9.9-21.8-22.8,9.3-22.7,21.8-22.7,16.6,4.8,20.3,12.8h14.1c-3.9-15.9-17.2-26.4-34.4-26.4s-36.4,15.6-36.4,36.3c.1,20.7,15.8,36.4,36.4,36.4ZM334,202.5c-13.1,0-22.7-9.8-22.7-22.7s9.6-22.7,22.7-22.7,22.6,9.7,22.6,22.7-9.6,22.7-22.6,22.7M359.8,145.1l-1.7,8.7c-6.3-6.5-15.1-10.3-25.4-10.3-20.7,0-36.1,15.5-36.1,36.3s15.4,36.4,36.1,36.4,18.9-3.8,25.1-10.2l1.4,8.4h11.5v-69.3h-10.9ZM280.8,201.5c-8.4,0-13-4.6-13-12.9v-31.3h20.5v-12.2h-20.6v-16.2h-2.4l-24.1,25.6v2.8h12.4v32.4c0,15.3,9.4,24.7,24.6,24.7h10.6v-12.9h-8ZM223.3,145.1l-20.6,48.3-22-48.3h-15.5l30.2,64.3-1.6,3.3c-5.1,11.1-7.9,13.8-17.1,13.8h-5.9v12.8h7c14.1,0,21-6.2,28.9-23.6l31.9-70.6h-15.3ZM116.6,202.5c-13.1,0-22.7-9.8-22.7-22.7s9.6-22.7,22.7-22.7,22.6,9.7,22.6,22.7c0,13-9.5,22.7-22.6,22.7M142.5,145.1l-1.7,8.7c-6.3-6.5-15.1-10.3-25.4-10.3-20.7,0-36.1,15.5-36.1,36.3s15.4,36.4,36.1,36.4,18.9-3.8,25.1-10.2l1.4,8.4h11.5v-69.3h-10.9ZM40.1,169.9h-17.8v-31.4h17.8c9.6,0,16.3,6.7,16.3,15.7s-6.7,15.7-16.3,15.7M40.8,124.5H7.6v89.9h14.7v-30.5h18.5c17.5,0,30.6-12.7,30.6-29.7.1-17-13.2-29.7-30.6-29.7"/>
    <path class="st1" d="M567,130.7c0,5.6-4.5,10.2-10.2,10.2s-10.2-4.5-10.2-10.2,4.5-10.2,10.2-10.2c5.7,0,10.2,4.6,10.2,10.2M569.3,130.7c0-6.9-5.6-12.6-12.6-12.6s-12.6,5.6-12.6,12.6,5.6,12.6,12.6,12.6c7,0,12.6-5.7,12.6-12.6"/>
    <path class="st1" d="M554.3,125.9h3c1.5,0,2.5.9,2.5,2.2s-1,2.2-2.5,2.2h-3v-4.4ZM560,137.6h2.5l-3.2-5.4c1.7-.6,2.8-2.1,2.8-4s-2-4.4-4.6-4.4h-5.4v13.8h2.3v-5.1h2.6l3,5.1Z"/>
  </g>
</svg>