<?xml version="1.0" encoding="UTF-8"?>
<svg xmlns="http://www.w3.org/2000/svg" xmlns:xlink="http://www.w3.org/1999/xlink" version="1.1" viewBox="0 0 664 720.6">
  <defs>
    <style>
      .cls-1 {
        mask: url(#mask);
      }

      .cls-2 {
        fill: url(#linear-gradient-8);
      }

      .cls-3 {
        fill: url(#linear-gradient-7);
      }

      .cls-4 {
        fill: url(#linear-gradient-5);
      }

      .cls-5 {
        fill: url(#linear-gradient-6);
      }

      .cls-6 {
        fill: url(#linear-gradient-4);
      }

      .cls-7 {
        fill: url(#linear-gradient-3);
      }

      .cls-8 {
        fill: url(#linear-gradient-2);
      }

      .cls-9 {
        fill: #29f3f7;
      }

      .cls-10 {
        fill: url(#linear-gradient);
      }

      .cls-11 {
        isolation: isolate;
      }

      .cls-12 {
        fill: none;
        stroke: #fff;
        stroke-width: 12px;
      }

      .cls-13, .cls-14 {
        fill: #fff;
      }

      .cls-15 {
        mix-blend-mode: screen;
      }

      .cls-14 {
        fill-opacity: .6;
      }
    </style>
    <linearGradient id="linear-gradient" x1="196.7" y1="676" x2="230.7" y2="863.9" gradientTransform="translate(-5.5 1234.7) rotate(30) scale(1 -.9) skewX(-26.6)" gradientUnits="userSpaceOnUse">
      <stop offset="0" stop-color="#13b3d3"/>
      <stop offset="1" stop-color="#13edb1"/>
    </linearGradient>
    <linearGradient id="linear-gradient-2" x1="-157.1" y1="196.2" x2="127.8" y2="670" gradientTransform="translate(728.6 631.9) rotate(-30) scale(1 -.9) skewX(-26.6)" gradientUnits="userSpaceOnUse">
      <stop offset="0" stop-color="#13b3d3"/>
      <stop offset="1" stop-color="#000"/>
    </linearGradient>
    <linearGradient id="linear-gradient-3" x1="-166.8" y1="291.9" x2="53.5" y2="658.6" gradientTransform="translate(801.2 630.9) rotate(-30) scale(1 -.9) skewX(-26.6)" gradientUnits="userSpaceOnUse">
      <stop offset="0" stop-color="#13eeb0"/>
      <stop offset="1" stop-color="#13b3d3"/>
    </linearGradient>
    <linearGradient id="linear-gradient-4" x1="509.5" y1="279.6" x2="465.2" y2="598.4" gradientTransform="translate(0 671.2) scale(1 -1)" gradientUnits="userSpaceOnUse">
      <stop offset="0" stop-color="#13eeb0" stop-opacity="0"/>
      <stop offset=".5" stop-color="#13b3d3" stop-opacity=".3"/>
      <stop offset=".8" stop-color="#13b3d3" stop-opacity="0"/>
    </linearGradient>
    <linearGradient id="linear-gradient-5" x1="218.4" y1="491.7" x2="208.9" y2="634.8" gradientTransform="translate(316.5 1241.7) rotate(-30) scale(1 -.9) skewX(26.6)" gradientUnits="userSpaceOnUse">
      <stop offset="0" stop-color="#13b3d3"/>
      <stop offset="1" stop-color="#12ebb2"/>
    </linearGradient>
    <mask id="mask" x="42.2" y="241.8" width="595" height="355.6" maskUnits="userSpaceOnUse">
      <g id="path-8-inside-1_154_43">
        <path class="cls-13" d="M49.6,416.8l285.3-168.2c1.9-1.1,5-1.1,6.9,0l287.9,169.7c1.9,1.1,1.9,2.9,0,4.1l-285.3,168.2c-1.9,1.1-5,1.1-6.9,0L49.6,420.9c-1.9-1.1-1.9-2.9,0-4.1Z"/>
      </g>
    </mask>
    <linearGradient id="linear-gradient-6" x1="-221.2" y1="398.2" x2="182.5" y2="494.2" gradientTransform="translate(735.5 374.3) rotate(-29.3) scale(1 -.9) skewX(-27.6)" gradientUnits="userSpaceOnUse">
      <stop offset="0" stop-color="#0993c7"/>
      <stop offset="1" stop-color="#000"/>
    </linearGradient>
    <linearGradient id="linear-gradient-7" x1="-221.9" y1="395.2" x2="178.2" y2="486.1" gradientTransform="translate(726.5 328.9) rotate(-29.3) scale(1 -.9) skewX(-27.6)" gradientUnits="userSpaceOnUse">
      <stop offset="0" stop-color="#0eb9da"/>
      <stop offset="1" stop-color="#33ffa3"/>
    </linearGradient>
    <linearGradient id="linear-gradient-8" x1="270" y1="166.8" x2="87.7" y2="784.6" gradientTransform="translate(0 671.2) scale(1 -1)" gradientUnits="userSpaceOnUse">
      <stop offset="0" stop-color="#13eeb0" stop-opacity=".3"/>
      <stop offset=".5" stop-color="#13b3d3" stop-opacity=".3"/>
      <stop offset=".8" stop-color="#13b3d3" stop-opacity="0"/>
    </linearGradient>
  </defs>
  <!-- Generator: Adobe Illustrator 28.7.1, SVG Export Plug-In . SVG Version: 1.2.0 Build 142)  -->
  <g class="cls-11">
    <g id="Layer_1">
      <polygon class="cls-10" points="18.5 422.6 340.7 608.6 340.7 720.6 18.5 534.6 18.5 422.6"/>
      <path class="cls-13" d="M125,544.6l63,36.4v17l-63-36.4v-17Z"/>
      <path class="cls-13" d="M125,544.6l63,36.4v17l-63-36.4v-17Z"/>
      <path class="cls-13" d="M125,521.6l63,36.4v17l-63-36.4v-17Z"/>
      <path class="cls-13" d="M125,521.6l63,36.4v17l-63-36.4v-17Z"/>
      <polygon class="cls-8" points="18.5 422.6 340.7 236.6 663.1 422.8 340.9 608.8 18.5 422.6"/>
      <g class="cls-15">
        <polygon class="cls-7" points="91.1 421.6 340.5 277.6 589.9 421.6 340.5 565.6 91.1 421.6"/>
      </g>
      <g class="cls-15">
        <path class="cls-6" d="M340.5,210.1l318.5-134-69.1,346.5-249.4,144V210.1Z"/>
      </g>
      <polygon class="cls-4" points="340.5 608.6 662.7 422.6 662.7 534.6 340.5 720.6 340.5 608.6"/>
      <g class="cls-15">
        <g class="cls-1">
          <path class="cls-12" d="M49.6,416.8l285.3-168.2c1.9-1.1,5-1.1,6.9,0l287.9,169.7c1.9,1.1,1.9,2.9,0,4.1l-285.3,168.2c-1.9,1.1-5,1.1-6.9,0L49.6,420.9c-1.9-1.1-1.9-2.9,0-4.1Z"/>
        </g>
      </g>
      <path class="cls-5" d="M180.3,82c89.1-49.9,228.1-53,310.4-6.8,82.4,46.2,76.9,124.1-12.1,174-89.1,49.9-228.1,53-310.4,6.8-82.4-46.2-76.9-124.1,12.1-174Z"/>
      <path class="cls-3" d="M169.1,37.8c87.9-49.3,228.1-50.5,313.1-2.9,85,47.7,82.8,126.2-5.1,175.5-87.9,49.3-228.1,50.5-313.1,2.9-85-47.7-82.8-126.2,5.1-175.5Z"/>
      <path class="cls-9" d="M459.8,42.8c76.1,42.6,76.4,111.6.7,154-75.7,42.4-198.7,42.2-274.8-.4-76.1-42.6-76.4-111.6-.7-154C260.7,0,383.7.2,459.8,42.8Z"/>
      <g class="cls-15">
        <path class="cls-2" d="M.5,37.6l340.4,184.5v343.9l-249.4-144L.5,37.6Z"/>
      </g>
      <path class="cls-13" d="M468,566l63-36.4v17l-63,36.4v-17Z"/>
      <path class="cls-13" d="M468,566l63-36.4v17l-63,36.4v-17Z"/>
      <path class="cls-13" d="M468,591l63-36.4v17l-63,36.4v-17Z"/>
      <path class="cls-13" d="M468,591l63-36.4v17l-63,36.4v-17Z"/>
      <g class="cls-15">
        <path class="cls-13" d="M361.6,97.4l22.5-13,8.7,5-22.5,13-8.7-5ZM344.3,87.4l22.5-13,8.7,5-22.5,13-8.7-5ZM265.5,152.9l22.5-13,8.7,5-22.5,13-8.7-5ZM248.2,142.9l22.5-13,8.7,5-22.5,13-8.7-5ZM247.6,127.9l92.8-53.6,22.3,12.9c7.4,4.3,12.9,8.3,16.2,12.1,3.6,3.8,4.8,7.3,3.9,10.8-.8,3.4-4.1,6.8-9.9,10.2-3.5,2-7.1,3.6-10.8,4.7-3.7,1.2-7.3,1.8-10.8,1.9-3.5.1-6.6-.4-9.5-1.4l-.7.4c1.9,1.8,3.1,3.7,3.5,5.8.4,2.1-.2,4.3-1.9,6.7-1.7,2.4-5,5-9.9,7.8-5.6,3.2-11.7,5.3-18.2,6.3-6.4.9-13,.7-19.7-.8-6.6-1.4-13-3.9-19.2-7.5l-28.2-16.3ZM328.1,109.7c4.3,2.5,8.2,3.7,11.7,3.6,3.5,0,6.9-1.1,10.4-3.1,3.6-2.1,5.1-4.1,4.7-6.2-.4-2-2.8-4.3-7.1-6.8l-3.9-2.2-20.7,11.9,4.9,2.9ZM307.6,115.9l-24.2,13.9,6.4,3.7c4.5,2.6,8.7,3.8,12.7,3.4,4.2-.3,8.1-1.6,12-3.8,2.3-1.3,4-2.8,4.9-4.2,1-1.4,1-3,0-4.6-.9-1.6-2.9-3.3-6.1-5.2l-5.7-3.3Z"/>
      </g>
      <path class="cls-14" d="M297.4,10.8c-44.3,3.8-85.2,16.1-115.6,34.9l55.4,28.5c18.5-11.4,43.4-19,70.4-21.3l-10.2-42.2Z"/>
      <path class="cls-14" d="M366.4,12c-12.5-1.5-25.2-2.3-38-2.4l-1.9,42.7c7.8,0,15.5.5,23.1,1.5l16.8-41.7Z"/>
      <path class="cls-14" d="M453.8,37.2c-16-8.1-34.3-14.7-54.3-19.3l-29.8,39.5c12.1,2.8,23.3,6.8,33,11.8l51-31.9Z"/>
      <path class="cls-14" d="M516.4,113.2c-1.3-20.7-13-40.7-33.8-57.6l-62.3,24.7c12.6,10.3,19.8,22.5,20.6,35.1l75.5-2.1Z"/>
      <path class="cls-14" d="M504.1,155.8c6.4-9.7,10.4-19.8,11.8-30l-75.3-2.8c-.9,6.2-3.3,12.4-7.2,18.3l70.7,14.5Z"/>
      <path class="cls-14" d="M488.5,174c3.4-3.2,6.6-6.6,9.4-10l-68.3-17.7c-1.7,2.1-3.7,4.1-5.7,6.1l64.6,21.6Z"/>
      <path class="cls-14" d="M428.8,209.2c19.5-7.3,36.5-16.6,50.3-27.3l-60.9-24.7c-8.4,6.5-18.8,12.2-30.6,16.6l41.2,35.4Z"/>
      <path class="cls-14" d="M169.7,53.9c-14.1,10.6-24.7,22.5-31.4,35.1l72.4,11.6c4-7.7,10.5-15,19.1-21.4l-60.1-25.3Z"/>
      <path class="cls-14" d="M135,96.4c-3.4,8.6-5,17.3-4.6,26.1l75.5-1.5c-.2-5.3.8-10.7,2.8-15.9l-73.7-8.7Z"/>
      <path class="cls-14" d="M132.6,136.9c4.5,16.3,15.4,31.7,32.1,45.2l62.1-24.8c-10.1-8.2-16.8-17.6-19.5-27.5l-74.6,7.1Z"/>
      <path class="cls-14" d="M169.4,185.7c6.1,4.5,12.8,8.7,20.1,12.6l52.4-31.2c-4.4-2.4-8.5-5-12.2-7.7l-60.3,26.2Z"/>
      <path class="cls-14" d="M203.5,205.2c15.6,6.8,32.9,12.3,51.5,16.1l26.8-40.1c-11.3-2.3-21.9-5.6-31.3-9.8l-46.9,33.8Z"/>
      <path class="cls-14" d="M337.4,227.4c27.2-1.3,53.6-5.9,77.6-13.4l-35.8-37.3c-14.6,4.6-30.7,7.3-47.3,8.2l5.4,42.5Z"/>
      <path class="cls-14" d="M275.9,224.8c15.6,2.1,31.7,3.1,47.8,3v-42.7c-9.9,0-19.7-.5-29.2-1.8l-18.6,41.5Z"/>
    </g>
  </g>
</svg>